ISO-10303-21;
HEADER;
FILE_DESCRIPTION (( 'STEP AP214' ),
    '1' );
FILE_NAME ('BTN Attacher 1#.STEP',
    '2026-09-07T09:03:51',
    ( '' ),
    ( '' ),
    'SwSTEP 2.0',
    'SolidWorks 2026',
    '' );
FILE_SCHEMA (( 'AUTOMOTIVE_DESIGN' ));
ENDSEC;

DATA;
#1 = ORIENTED_EDGE ( 'NONE', *, *, #89, .F. ) ;
#2 = ADVANCED_FACE ( 'NONE', ( #11 ), #104, .F. ) ;
#3 = LINE ( 'NONE', #376, #81 ) ;
#4 = ORIENTED_EDGE ( 'NONE', *, *, #58, .T. ) ;
#5 = CARTESIAN_POINT ( 'NONE',  ( -1.500000000000000222, 1.399999999999999911, 1.617824530182703668 ) ) ;
#6 = EDGE_LOOP ( 'NONE', ( #258, #164, #168, #193, #197, #96, #4 ) ) ;
#7 = CARTESIAN_POINT ( 'NONE',  ( 1.500000000000000222, 1.399999999999999911, 1.617819426984755227 ) ) ;
#8 = ORIENTED_EDGE ( 'NONE', *, *, #58, .F. ) ;
#9 = B_SPLINE_CURVE_WITH_KNOTS ( 'NONE', 3,
 ( #112, #13, #83, #144, #176, #150 ),
 .UNSPECIFIED., .F., .F.,
 ( 4, 2, 4 ),
 ( 4.336808689942017736E-19, 0.001513007688743851255, 0.003026015377487702076 ),
 .UNSPECIFIED. ) ;
#10 = ADVANCED_FACE ( 'NONE', ( #232 ), #282, .T. ) ;
#11 = FACE_OUTER_BOUND ( 'NONE', #306, .T. ) ;
#12 = VECTOR ( 'NONE', #219, 1000.000000000000000 ) ;
#13 = CARTESIAN_POINT ( 'NONE',  ( 1.013893357946002327, 1.106833761053985121, 2.184982838488882084 ) ) ;
#14 = SURFACE_STYLE_USAGE ( .BOTH. , #323 ) ;
#15 = ADVANCED_FACE ( 'NONE', ( #203 ), #141, .T. ) ;
#16 =( BOUNDED_SURFACE ( )  B_SPLINE_SURFACE ( 3, 1, ( 
 ( #329, #55 ),
 ( #63, #336 ),
 ( #60, #365 ),
 ( #217, #332 ) ),
 .UNSPECIFIED., .F., .F., .F. ) 
 B_SPLINE_SURFACE_WITH_KNOTS ( ( 4, 4 ),
 ( 2, 2 ),
 ( 0.000000000000000000, 1.000000000000000000 ),
 ( 0.000000000000000000, 1.000000000000000000 ),
 .UNSPECIFIED. ) 
 GEOMETRIC_REPRESENTATION_ITEM ( )  RATIONAL_B_SPLINE_SURFACE ( (
 ( 1.000000000000000000, 1.000000000000000000),
 ( 0.9667654570425328053, 0.9667654570425328053),
 ( 0.9667654570425328053, 0.9667654570425328053),
 ( 1.000000000000000000, 1.000000000000000000) ) ) 
 REPRESENTATION_ITEM ( '' )  SURFACE ( )  );
#17 = DIRECTION ( 'NONE',  ( 1.000000000000000000, 0.000000000000000000, 0.000000000000000000 ) ) ;
#18 = ADVANCED_FACE ( 'NONE', ( #110 ), #343, .F. ) ;
#19 = CARTESIAN_POINT ( 'NONE',  ( -1.500000000000000000, 1.000000000000000000, -0.4041232037028950064 ) ) ;
#20 = PLANE ( 'NONE',  #102 ) ;
#21 = CARTESIAN_POINT ( 'NONE',  ( 0.9999999999999978906, 1.000000000000000000, -1.000000000000000000 ) ) ;
#22 = DIRECTION ( 'NONE',  ( 0.000000000000000000, -1.000000000000000000, 0.000000000000000000 ) ) ;
#23 = VERTEX_POINT ( 'NONE', #267 ) ;
#24 = DIRECTION ( 'NONE',  ( 1.141265444721583757E-16, 0.000000000000000000, 1.000000000000000000 ) ) ;
#25 = CARTESIAN_POINT ( 'NONE',  ( -1.500000000000000000, 0.000000000000000000, -0.4041232037028950064 ) ) ;
#26 = VERTEX_POINT ( 'NONE', #178 ) ;
#27 = EDGE_CURVE ( 'NONE', #312, #23, #82, .T. ) ;
#28 = PLANE ( 'NONE',  #117 ) ;
#29 = CARTESIAN_POINT ( 'NONE',  ( -1.500000000000000000, 1.000000000000000000, -1.000000000000000000 ) ) ;
#30 = EDGE_LOOP ( 'NONE', ( #316, #234, #320, #235 ) ) ;
#31 = CARTESIAN_POINT ( 'NONE',  ( 0.9999999999999978906, 0.000000000000000000, -1.000000000000000000 ) ) ;
#32 = VECTOR ( 'NONE', #272, 1000.000000000000000 ) ;
#33 = EDGE_CURVE ( 'NONE', #379, #156, #353, .T. ) ;
#34 = ORIENTED_EDGE ( 'NONE', *, *, #247, .F. ) ;
#35 = DIRECTION ( 'NONE',  ( 0.000000000000000000, 0.9625068420560822791, -0.2712574035768015590 ) ) ;
#36 = ORIENTED_EDGE ( 'NONE', *, *, #317, .T. ) ;
#37 = DIRECTION ( 'NONE',  ( 0.000000000000000000, 0.000000000000000000, -1.000000000000000000 ) ) ;
#38 = ORIENTED_EDGE ( 'NONE', *, *, #286, .F. ) ;
#39 = VECTOR ( 'NONE', #297, 1000.000000000000000 ) ;
#40 = CARTESIAN_POINT ( 'NONE',  ( -1.029994824228811057, 1.399999999999999911, 1.789480396619105296 ) ) ;
#41 = DIRECTION ( 'NONE',  ( 0.000000000000000000, 1.000000000000000000, -0.000000000000000000 ) ) ;
#42 = VERTEX_POINT ( 'NONE', #242 ) ;
#43 = CARTESIAN_POINT ( 'NONE',  ( 1.500000000000000666, 1.191276127410995755, 2.001664364137615504 ) ) ;
#44 = B_SPLINE_CURVE_WITH_KNOTS ( 'NONE', 3,
 ( #254, #311, #133, #284, #287, #225 ),
 .UNSPECIFIED., .F., .F.,
 ( 4, 2, 4 ),
 ( 0.000000000000000000, 0.0002695394427320717701, 0.0005390788854641435403 ),
 .UNSPECIFIED. ) ;
#45 = UNCERTAINTY_MEASURE_WITH_UNIT (LENGTH_MEASURE( 1.000000000000000082E-05 ), #48, 'distance_accuracy_value', 'NONE');
#46 = COLOUR_RGB ( '',0.7921568627450980005, 0.8196078431372548767, 0.9333333333333333481 ) ;
#47 = CARTESIAN_POINT ( 'NONE',  ( -1.500000000000000000, 0.000000000000000000, -1.000000000000000000 ) ) ;
#48 =( LENGTH_UNIT ( ) NAMED_UNIT ( * ) SI_UNIT ( .MILLI., .METRE. ) );
#49 = DIRECTION ( 'NONE',  ( 0.7660444431189766812, 0.000000000000000000, 0.6427876096865409172 ) ) ;
#50 = AXIS2_PLACEMENT_3D ( 'NONE', #166, #199, #349 ) ;
#51 = LINE ( 'NONE', #210, #152 ) ;
#52 = DIRECTION ( 'NONE',  ( -1.000000000000000000, 0.000000000000000000, 0.000000000000000000 ) ) ;
#53 = VERTEX_POINT ( 'NONE', #177 ) ;
#54 =( NAMED_UNIT ( * ) SI_UNIT ( $, .STERADIAN. ) SOLID_ANGLE_UNIT ( ) );
#55 = CARTESIAN_POINT ( 'NONE',  ( 1.499999999999999778, 4.336808689942017736E-16, 2.337394413156534956 ) ) ;
#56 = ORIENTED_EDGE ( 'NONE', *, *, #172, .T. ) ;
#57 = FACE_OUTER_BOUND ( 'NONE', #140, .T. ) ;
#58 = EDGE_CURVE ( 'NONE', #379, #330, #51, .T. ) ;
#59 = CARTESIAN_POINT ( 'NONE',  ( 1.500000000000000222, 1.000000000000000000, 0.7999999999999994893 ) ) ;
#60 = CARTESIAN_POINT ( 'NONE',  ( -0.5171880246749693821, 1.115317123975225533, 2.345591961554045035 ) ) ;
#61 = ORIENTED_EDGE ( 'NONE', *, *, #341, .F. ) ;
#62 = PRODUCT_CONTEXT ( 'NONE', #72, 'mechanical' ) ;
#63 = CARTESIAN_POINT ( 'NONE',  ( 0.5171890237759919629, 1.115317123975225533, 2.345590359396882540 ) ) ;
#64 = PRODUCT_DEFINITION ( 'ๆ', '', #390, #146 ) ;
#65 = FACE_OUTER_BOUND ( 'NONE', #71, .T. ) ;
#66 = EDGE_LOOP ( 'NONE', ( #364, #107, #351, #289 ) ) ;
#67 = AXIS2_PLACEMENT_3D ( 'NONE', #382, #41, #171 ) ;
#68 = CARTESIAN_POINT ( 'NONE',  ( -1.119610685563778629, 1.106465162429411286, 2.167253419519269197 ) ) ;
#69 = ORIENTED_EDGE ( 'NONE', *, *, #301, .T. ) ;
#70 = CARTESIAN_POINT ( 'NONE',  ( 1.500000000000000000, 0.000000000000000000, -0.4041232037028952284 ) ) ;
#71 = EDGE_LOOP ( 'NONE', ( #224, #158, #101, #255 ) ) ;
#72 = APPLICATION_CONTEXT ( 'automotive_design' ) ;
#73 = CARTESIAN_POINT ( 'NONE',  ( -0.5649231182483678282, 1.108503113383882521, 2.264828269528185167 ) ) ;
#74 = DIRECTION ( 'NONE',  ( 0.000000000000000000, -0.000000000000000000, 1.000000000000000000 ) ) ;
#75 = EDGE_CURVE ( 'NONE', #277, #156, #265, .T. ) ;
#76 = VECTOR ( 'NONE', #244, 1000.000000000000114 ) ;
#77 = CARTESIAN_POINT ( 'NONE',  ( 0.000000000000000000, 1.399999999999999911, 0.000000000000000000 ) ) ;
#78 = LINE ( 'NONE', #268, #374 ) ;
#79 = EDGE_CURVE ( 'NONE', #252, #156, #295, .T. ) ;
#80 = LINE ( 'NONE', #123, #162 ) ;
#81 = VECTOR ( 'NONE', #35, 1000.000000000000000 ) ;
#82 = B_SPLINE_CURVE_WITH_KNOTS ( 'NONE', 3,
 ( #355, #240, #264, #387, #43, #211 ),
 .UNSPECIFIED., .F., .F.,
 ( 4, 2, 4 ),
 ( 0.000000000000000000, 0.0002694863184571815113, 0.0005389726369143630225 ),
 .UNSPECIFIED. ) ;
#83 = CARTESIAN_POINT ( 'NONE',  ( 0.5158045343207348088, 1.108489920217938574, 2.264200595664596083 ) ) ;
#84 = EDGE_CURVE ( 'NONE', #23, #285, #9, .T. ) ;
#85 = AXIS2_PLACEMENT_3D ( 'NONE', #186, #157, #192 ) ;
#86 = CARTESIAN_POINT ( 'NONE',  ( 0.9999999999999978906, 0.4999999999999978351, -1.000000000000000000 ) ) ;
#87 = CARTESIAN_POINT ( 'NONE',  ( -1.500000000000000000, 1.000000000000000000, -0.4041232037028950064 ) ) ;
#88 = ORIENTED_EDGE ( 'NONE', *, *, #386, .F. ) ;
#89 = EDGE_CURVE ( 'NONE', #377, #330, #78, .T. ) ;
#90 = DIRECTION ( 'NONE',  ( 0.6427876096865409172, -0.000000000000000000, 0.7660444431189766812 ) ) ;
#91 = ORIENTED_EDGE ( 'NONE', *, *, #359, .F. ) ;
#92 = APPLICATION_CONTEXT ( 'automotive_design' ) ;
#93 = CARTESIAN_POINT ( 'NONE',  ( 1.500000000000000000, 1.000000000000000000, -0.4041232037028951174 ) ) ;
#94 = VECTOR ( 'NONE', #90, 1000.000000000000114 ) ;
#95 = DIRECTION ( 'NONE',  ( -0.5407162030609378167, 0.5407162030609377057, 0.6444004775717702138 ) ) ;
#96 = ORIENTED_EDGE ( 'NONE', *, *, #33, .F. ) ;
#97 = EDGE_CURVE ( 'NONE', #132, #138, #263, .T. ) ;
#98 = CARTESIAN_POINT ( 'NONE',  ( -1.623012101483565672, 1.400000000000000133, 1.900719648533376605 ) ) ;
#99 = ORIENTED_EDGE ( 'NONE', *, *, #236, .T. ) ;
#100 = CARTESIAN_POINT ( 'NONE',  ( 1.115808078247818358, 1.106494308962989281, 2.168622308924331499 ) ) ;
#101 = ORIENTED_EDGE ( 'NONE', *, *, #307, .F. ) ;
#102 = AXIS2_PLACEMENT_3D ( 'NONE', #395, #269, #214 ) ;
#103 = CARTESIAN_POINT ( 'NONE',  ( 1.500000000000000444, 1.399999999999999689, 1.371259202696846868 ) ) ;
#104 = PLANE ( 'NONE',  #50 ) ;
#105 = CARTESIAN_POINT ( 'NONE',  ( 1.517354827024747443, 1.400000000000000355, 1.611523838869673986 ) ) ;
#106 = EDGE_CURVE ( 'NONE', #274, #252, #294, .T. ) ;
#107 = ORIENTED_EDGE ( 'NONE', *, *, #359, .T. ) ;
#108 = ORIENTED_EDGE ( 'NONE', *, *, #212, .F. ) ;
#109 = VECTOR ( 'NONE', #17, 1000.000000000000000 ) ;
#110 = FACE_OUTER_BOUND ( 'NONE', #226, .T. ) ;
#111 = DIRECTION ( 'NONE',  ( 0.000000000000000000, 1.000000000000000000, 0.000000000000000000 ) ) ;
#112 = CARTESIAN_POINT ( 'NONE',  ( 1.500000000000000222, 1.103464568314089123, 2.026411757593828078 ) ) ;
#113 = AXIS2_PLACEMENT_3D ( 'NONE', #119, #182, #22 ) ;
#114 = ADVANCED_FACE ( 'NONE', ( #238 ), #208, .F. ) ;
#115 = LINE ( 'NONE', #25, #76 ) ;
#116 = AXIS2_PLACEMENT_3D ( 'NONE', #187, #338, #122 ) ;
#117 = AXIS2_PLACEMENT_3D ( 'NONE', #391, #328, #24 ) ;
#118 = CARTESIAN_POINT ( 'NONE',  ( 1.500000000000000222, 0.000000000000000000, 2.337394413156535400 ) ) ;
#119 = CARTESIAN_POINT ( 'NONE',  ( 0.9999999999999978906, 1.000000000000000000, -1.000000000000000000 ) ) ;
#120 = ORIENTED_EDGE ( 'NONE', *, *, #253, .T. ) ;
#121 = PRODUCT ( 'BTN Attacher 1#', 'BTN Attacher 1#', '', ( #62 ) ) ;
#122 = DIRECTION ( 'NONE',  ( 1.000000000000000000, 0.000000000000000000, 0.000000000000000000 ) ) ;
#123 = CARTESIAN_POINT ( 'NONE',  ( -1.500000000000000000, 1.000000000000000000, -0.4041232037028949509 ) ) ;
#124 = LINE ( 'NONE', #370, #318 ) ;
#125 = ORIENTED_EDGE ( 'NONE', *, *, #142, .F. ) ;
#126 = MANIFOLD_SOLID_BREP ( '\X2\570689d2\X0\1', #185 ) ;
#127 =( LENGTH_UNIT ( ) NAMED_UNIT ( * ) SI_UNIT ( .MILLI., .METRE. ) );
#128 = CARTESIAN_POINT ( 'NONE',  ( 0.5198128918616803373, 1.400000000000000355, 1.879811663178190040 ) ) ;
#129 = ORIENTED_EDGE ( 'NONE', *, *, #89, .T. ) ;
#130 = SHAPE_DEFINITION_REPRESENTATION ( #394, #354 ) ;
#131 = LINE ( 'NONE', #259, #135 ) ;
#132 = VERTEX_POINT ( 'NONE', #31 ) ;
#133 = CARTESIAN_POINT ( 'NONE',  ( -1.500000000000000666, 1.267235759035808318, 1.946337757889528453 ) ) ;
#134 = ORIENTED_EDGE ( 'NONE', *, *, #190, .T. ) ;
#135 = VECTOR ( 'NONE', #231, 1000.000000000000000 ) ;
#136 = EDGE_CURVE ( 'NONE', #274, #26, #80, .T. ) ;
#137 = CARTESIAN_POINT ( 'NONE',  ( -0.5104227523046835913, 1.400000000000000133, 1.857628496258016293 ) ) ;
#138 = VERTEX_POINT ( 'NONE', #151 ) ;
#139 = CARTESIAN_POINT ( 'NONE',  ( -0.5552763338303202678, 1.400000000000112710, 2.182677239065507369 ) ) ;
#140 = EDGE_LOOP ( 'NONE', ( #108, #129, #8, #56 ) ) ;
#141 = PLANE ( 'NONE',  #67 ) ;
#142 = EDGE_CURVE ( 'NONE', #216, #277, #366, .T. ) ;
#143 = AXIS2_PLACEMENT_3D ( 'NONE', #77, #347, #74 ) ;
#144 = CARTESIAN_POINT ( 'NONE',  ( -0.5041098838413261563, 1.108515853782455984, 2.265434452960072065 ) ) ;
#145 = PRESENTATION_STYLE_ASSIGNMENT (( #14 ) ) ;
#146 = PRODUCT_DEFINITION_CONTEXT ( 'detailed design', #92, 'design' ) ;
#147 = VECTOR ( 'NONE', #198, 1000.000000000000000 ) ;
#148 = ADVANCED_FACE ( 'NONE', ( #161 ), #339, .F. ) ;
#149 =( NAMED_UNIT ( * ) SI_UNIT ( $, .STERADIAN. ) SOLID_ANGLE_UNIT ( ) );
#150 = CARTESIAN_POINT ( 'NONE',  ( -1.500000000000000222, 1.103464666456457577, 2.026416376665569619 ) ) ;
#151 = CARTESIAN_POINT ( 'NONE',  ( -0.9999999999999978906, 0.000000000000000000, -1.000000000000000000 ) ) ;
#152 = VECTOR ( 'NONE', #293, 1000.000000000000114 ) ;
#153 = LINE ( 'NONE', #29, #32 ) ;
#154 = ORIENTED_EDGE ( 'NONE', *, *, #97, .F. ) ;
#155 = FACE_OUTER_BOUND ( 'NONE', #66, .T. ) ;
#156 = VERTEX_POINT ( 'NONE', #93 ) ;
#157 = DIRECTION ( 'NONE',  ( 0.000000000000000000, -0.8191520442889909104, 0.5735764363510473807 ) ) ;
#158 = ORIENTED_EDGE ( 'NONE', *, *, #291, .F. ) ;
#159 = LINE ( 'NONE', #21, #12 ) ;
#160 = ADVANCED_FACE ( 'NONE', ( #155 ), #20, .F. ) ;
#161 = FACE_OUTER_BOUND ( 'NONE', #396, .T. ) ;
#162 = VECTOR ( 'NONE', #95, 1000.000000000000000 ) ;
#163 = CARTESIAN_POINT ( 'NONE',  ( -0.5197135088579351025, 1.400000000000000355, 1.879824993528379506 ) ) ;
#164 = ORIENTED_EDGE ( 'NONE', *, *, #27, .T. ) ;
#165 = LINE ( 'NONE', #319, #147 ) ;
#166 = CARTESIAN_POINT ( 'NONE',  ( -1.500000000000000000, 1.000000000000000000, -1.000000000000000000 ) ) ;
#167 = CARTESIAN_POINT ( 'NONE',  ( -0.2548938557110560499, 1.400000000000000133, 1.879935698468516048 ) ) ;
#168 = ORIENTED_EDGE ( 'NONE', *, *, #317, .F. ) ;
#169 = VECTOR ( 'NONE', #191, 1000.000000000000000 ) ;
#170 = CARTESIAN_POINT ( 'NONE',  ( -1.102607980234591611, 1.400000000000840572, 2.087156145543141772 ) ) ;
#171 = DIRECTION ( 'NONE',  ( 0.000000000000000000, 0.000000000000000000, 1.000000000000000000 ) ) ;
#172 = EDGE_CURVE ( 'NONE', #379, #393, #249, .T. ) ;
#173 = ORIENTED_EDGE ( 'NONE', *, *, #227, .F. ) ;
#174 = DIRECTION ( 'NONE',  ( 1.000000000000000000, -0.000000000000000000, -0.000000000000000000 ) ) ;
#175 = DIRECTION ( 'NONE',  ( 0.000000000000000000, 0.000000000000000000, 1.000000000000000000 ) ) ;
#176 = CARTESIAN_POINT ( 'NONE',  ( -1.013898327040955616, 1.106833788838468502, 2.184984178714811431 ) ) ;
#177 = CARTESIAN_POINT ( 'NONE',  ( -1.500000000000000222, 1.399999999999999911, 1.617824530182703668 ) ) ;
#178 = CARTESIAN_POINT ( 'NONE',  ( -1.500000000000000000, 1.000000000000000000, -0.4041232037028952284 ) ) ;
#179 = ADVANCED_FACE ( 'NONE', ( #248 ), #392, .T. ) ;
#180 = DIRECTION ( 'NONE',  ( 0.000000000000000000, -1.000000000000000000, 0.000000000000000000 ) ) ;
#181 = UNCERTAINTY_MEASURE_WITH_UNIT (LENGTH_MEASURE( 1.000000000000000082E-05 ), #127, 'distance_accuracy_value', 'NONE');
#182 = DIRECTION ( 'NONE',  ( -0.7660444431189766812, 0.000000000000000000, 0.6427876096865409172 ) ) ;
#183 = ORIENTED_EDGE ( 'NONE', *, *, #296, .F. ) ;
#184 = LINE ( 'NONE', #331, #169 ) ;
#185 = CLOSED_SHELL ( 'NONE', ( #2, #375, #243, #239, #114, #160, #15, #18, #179, #148, #10, #352 ) ) ;
#186 = CARTESIAN_POINT ( 'NONE',  ( 0.000000000000000000, 2.000000000000000000, 2.228148006742113552 ) ) ;
#187 = CARTESIAN_POINT ( 'NONE',  ( 0.000000000000000000, 0.000000000000000000, 0.000000000000000000 ) ) ;
#188 = PLANE ( 'NONE',  #85 ) ;
#189 = ORIENTED_EDGE ( 'NONE', *, *, #33, .T. ) ;
#190 = EDGE_CURVE ( 'NONE', #132, #277, #300, .T. ) ;
#191 = DIRECTION ( 'NONE',  ( -1.141265444721583757E-16, 0.000000000000000000, 1.000000000000000000 ) ) ;
#192 = DIRECTION ( 'NONE',  ( -1.000000000000000000, 0.000000000000000000, 0.000000000000000000 ) ) ;
#193 = ORIENTED_EDGE ( 'NONE', *, *, #142, .T. ) ;
#194 =( NAMED_UNIT ( * ) PLANE_ANGLE_UNIT ( ) SI_UNIT ( $, .RADIAN. ) );
#195 = CARTESIAN_POINT ( 'NONE',  ( 1.500000000000000000, 1.399999999999999911, -1.000000000000000000 ) ) ;
#196 = CIRCLE ( 'NONE', #334, 4.810796291701608496 ) ;
#197 = ORIENTED_EDGE ( 'NONE', *, *, #75, .T. ) ;
#198 = DIRECTION ( 'NONE',  ( 0.000000000000000000, 1.000000000000000000, 0.000000000000000000 ) ) ;
#199 = DIRECTION ( 'NONE',  ( 1.000000000000000000, -0.000000000000000000, 1.141265444721583757E-16 ) ) ;
#200 = CARTESIAN_POINT ( 'NONE',  ( -1.500000000000000222, 1.103464666456457577, 2.026416376665569619 ) ) ;
#201 = EDGE_LOOP ( 'NONE', ( #36, #204, #367, #183 ) ) ;
#202 = CARTESIAN_POINT ( 'NONE',  ( 1.622952463145113100, 1.400000000000000577, 1.900735941026267639 ) ) ;
#203 = FACE_OUTER_BOUND ( 'NONE', #333, .T. ) ;
#204 = ORIENTED_EDGE ( 'NONE', *, *, #84, .T. ) ;
#205 = DIRECTION ( 'NONE',  ( -1.000000000000000000, -0.000000000000000000, -0.000000000000000000 ) ) ;
#206 = SURFACE_STYLE_FILL_AREA ( #360 ) ;
#207 = STYLED_ITEM ( 'NONE', ( #145 ), #126 ) ;
#208 = PLANE ( 'NONE',  #256 ) ;
#209 = EDGE_CURVE ( 'NONE', #26, #42, #308, .T. ) ;
#210 = CARTESIAN_POINT ( 'NONE',  ( 1.500000000000000444, 2.000000000000000000, 2.228148006742113552 ) ) ;
#211 = CARTESIAN_POINT ( 'NONE',  ( 1.500000000000000222, 1.103464568314089123, 2.026411757593828078 ) ) ;
#212 = EDGE_CURVE ( 'NONE', #377, #393, #124, .T. ) ;
#213 = VECTOR ( 'NONE', #298, 1000.000000000000000 ) ;
#214 = DIRECTION ( 'NONE',  ( 1.000000000000000000, 0.000000000000000000, -0.000000000000000000 ) ) ;
#215 = CARTESIAN_POINT ( 'NONE',  ( -1.500000000000000000, 1.399999999999999911, -1.000000000000000000 ) ) ;
#216 = VERTEX_POINT ( 'NONE', #118 ) ;
#217 = CARTESIAN_POINT ( 'NONE',  ( -1.499999999999998224, 1.115317123975225755, 2.023076071213114613 ) ) ;
#218 = ORIENTED_EDGE ( 'NONE', *, *, #247, .T. ) ;
#219 = DIRECTION ( 'NONE',  ( 0.000000000000000000, -1.000000000000000000, 0.000000000000000000 ) ) ;
#220 = DIRECTION ( 'NONE',  ( 9.348699221200696566E-17, -0.5735764363510473807, -0.8191520442889909104 ) ) ;
#221 = PRODUCT_RELATED_PRODUCT_CATEGORY ( 'part', '', ( #121 ) ) ;
#222 = ORIENTED_EDGE ( 'NONE', *, *, #209, .F. ) ;
#223 = DIRECTION ( 'NONE',  ( -1.141265444721583757E-16, -0.000000000000000000, -1.000000000000000000 ) ) ;
#224 = ORIENTED_EDGE ( 'NONE', *, *, #27, .F. ) ;
#225 = CARTESIAN_POINT ( 'NONE',  ( -1.500000000000000222, 1.399999999999999911, 1.617824530182703668 ) ) ;
#226 = EDGE_LOOP ( 'NONE', ( #34, #222, #337, #38 ) ) ;
#227 = EDGE_CURVE ( 'NONE', #377, #53, #276, .T. ) ;
#228 = VECTOR ( 'NONE', #251, 1000.000000000000000 ) ;
#229 = CARTESIAN_POINT ( 'NONE',  ( 0.5158561634179471556, 1.400000000000000133, 1.879582192691554798 ) ) ;
#230 = ORIENTED_EDGE ( 'NONE', *, *, #291, .T. ) ;
#231 = DIRECTION ( 'NONE',  ( -0.000000000000000000, -0.9625068420560822791, 0.2712574035768015590 ) ) ;
#232 = FACE_OUTER_BOUND ( 'NONE', #373, .T. ) ;
#233 = CARTESIAN_POINT ( 'NONE',  ( -1.257614462222078622, 1.400000000000000133, 1.705178420982302434 ) ) ;
#234 = ORIENTED_EDGE ( 'NONE', *, *, #253, .F. ) ;
#235 = ORIENTED_EDGE ( 'NONE', *, *, #106, .F. ) ;
#236 = EDGE_CURVE ( 'NONE', #26, #393, #153, .T. ) ;
#237 = CARTESIAN_POINT ( 'NONE',  ( 1.500000000000000000, 1.000000000000000000, -1.000000000000000000 ) ) ;
#238 = FACE_OUTER_BOUND ( 'NONE', #309, .T. ) ;
#239 = ADVANCED_FACE ( 'NONE', ( #245 ), #16, .T. ) ;
#240 = CARTESIAN_POINT ( 'NONE',  ( 1.500000000000004441, 1.400000000000000133, 1.708908361151667554 ) ) ;
#241 = AXIS2_PLACEMENT_3D ( 'NONE', #304, #389, #305 ) ;
#242 = CARTESIAN_POINT ( 'NONE',  ( -1.500000000000000000, 0.000000000000000000, -0.4041232037028952284 ) ) ;
#243 = ADVANCED_FACE ( 'NONE', ( #57 ), #188, .F. ) ;
#244 = DIRECTION ( 'NONE',  ( 0.6427876096865409172, -0.000000000000000000, -0.7660444431189766812 ) ) ;
#245 = FACE_OUTER_BOUND ( 'NONE', #201, .T. ) ;
#246 = APPLICATION_PROTOCOL_DEFINITION ( 'draft international standard', 'automotive_design', 1998, #72 ) ;
#247 = EDGE_CURVE ( 'NONE', #42, #138, #115, .T. ) ;
#248 = FACE_OUTER_BOUND ( 'NONE', #30, .T. ) ;
#249 = LINE ( 'NONE', #275, #362 ) ;
#250 = ORIENTED_EDGE ( 'NONE', *, *, #79, .T. ) ;
#251 = DIRECTION ( 'NONE',  ( -1.141265444721583757E-16, 0.000000000000000000, -1.000000000000000000 ) ) ;
#252 = VERTEX_POINT ( 'NONE', #86 ) ;
#253 = EDGE_CURVE ( 'NONE', #156, #26, #361, .T. ) ;
#254 = CARTESIAN_POINT ( 'NONE',  ( -1.500000000000000222, 1.103464666456457577, 2.026416376665569619 ) ) ;
#255 = ORIENTED_EDGE ( 'NONE', *, *, #84, .F. ) ;
#256 = AXIS2_PLACEMENT_3D ( 'NONE', #324, #388, #175 ) ;
#257 = CARTESIAN_POINT ( 'NONE',  ( -0.9999999999999978906, 0.4999999999999978351, -1.000000000000000000 ) ) ;
#258 = ORIENTED_EDGE ( 'NONE', *, *, #301, .F. ) ;
#259 = CARTESIAN_POINT ( 'NONE',  ( -1.500000000000000222, 3.272523262990679971, 1.415123887726013718 ) ) ;
#260 = ORIENTED_EDGE ( 'NONE', *, *, #212, .T. ) ;
#261 = ORIENTED_EDGE ( 'NONE', *, *, #307, .T. ) ;
#262 = ORIENTED_EDGE ( 'NONE', *, *, #209, .T. ) ;
#263 = LINE ( 'NONE', #47, #303 ) ;
#264 = CARTESIAN_POINT ( 'NONE',  ( 1.500000000000000666, 1.372383960302734129, 1.798213808649764101 ) ) ;
#265 = LINE ( 'NONE', #358, #266 ) ;
#266 = VECTOR ( 'NONE', #111, 1000.000000000000000 ) ;
#267 = CARTESIAN_POINT ( 'NONE',  ( 1.500000000000000222, 1.103464568314089123, 2.026411757593828078 ) ) ;
#268 = CARTESIAN_POINT ( 'NONE',  ( 0.000000000000000000, 1.399999999999999911, 1.371259202696847757 ) ) ;
#269 = DIRECTION ( 'NONE',  ( 0.000000000000000000, 0.000000000000000000, 1.000000000000000000 ) ) ;
#270 =( BOUNDED_SURFACE ( )  B_SPLINE_SURFACE ( 3, 2, ( 
 ( #105, #202, #348 ),
 ( #372, #400, #100 ),
 ( #128, #346, #378 ),
 ( #163, #139, #73 ),
 ( #40, #170, #68 ),
 ( #371, #98, #278 ) ),
 .UNSPECIFIED., .F., .F., .F. ) 
 B_SPLINE_SURFACE_WITH_KNOTS ( ( 4, 2, 4 ),
 ( 3, 3 ),
 ( 0.001360458961287221635, 0.002901564996485919527, 0.004442671031684617203 ),
 ( 0.000000000000000000, 1.000000000000000000 ),
 .UNSPECIFIED. ) 
 GEOMETRIC_REPRESENTATION_ITEM ( )  RATIONAL_B_SPLINE_SURFACE ( (
 ( 1.000000000000000000, 0.7924374031725290868, 1.000000000000000000),
 ( 1.000000000000000000, 0.7956711654296104719, 1.000000000000000000),
 ( 1.000000000000000000, 0.7972631388397473096, 1.000000000000000000),
 ( 1.000000000000000000, 0.7972633761835223876, 1.000000000000000000),
 ( 1.000000000000000000, 0.7956584909370457703, 1.000000000000000000),
 ( 1.000000000000000000, 0.7924371217378712862, 1.000000000000000000) ) ) 
 REPRESENTATION_ITEM ( '' )  SURFACE ( )  );
#271 =( GEOMETRIC_REPRESENTATION_CONTEXT ( 3 ) GLOBAL_UNCERTAINTY_ASSIGNED_CONTEXT ( ( #45 ) ) GLOBAL_UNIT_ASSIGNED_CONTEXT ( ( #48, #325, #149 ) ) REPRESENTATION_CONTEXT ( 'NONE', 'WORKASPACE' ) );
#272 = DIRECTION ( 'NONE',  ( -1.141265444721583757E-16, 0.000000000000000000, 1.000000000000000000 ) ) ;
#273 = DIRECTION ( 'NONE',  ( -1.000000000000000000, -0.000000000000000000, -0.000000000000000000 ) ) ;
#274 = VERTEX_POINT ( 'NONE', #257 ) ;
#275 = CARTESIAN_POINT ( 'NONE',  ( -1.500000000000000444, 1.000000000000000000, 0.7999999999999999334 ) ) ;
#276 = LINE ( 'NONE', #215, #213 ) ;
#277 = VERTEX_POINT ( 'NONE', #70 ) ;
#278 = CARTESIAN_POINT ( 'NONE',  ( -1.650036710662230677, 1.102365273526561218, 1.974732632967380663 ) ) ;
#279 = CARTESIAN_POINT ( 'NONE',  ( 1.500000000000000222, 1.399999999999999911, 1.617819426984755227 ) ) ;
#280 = VERTEX_POINT ( 'NONE', #344 ) ;
#281 = CARTESIAN_POINT ( 'NONE',  ( -1.011155161009993364, 1.400000000000000577, 1.770244836677579148 ) ) ;
#282 = PLANE ( 'NONE',  #143 ) ;
#283 = VECTOR ( 'NONE', #357, 1000.000000000000000 ) ;
#284 = CARTESIAN_POINT ( 'NONE',  ( -1.500000000000000222, 1.372613645930304216, 1.798048846775990750 ) ) ;
#285 = VERTEX_POINT ( 'NONE', #200 ) ;
#286 = EDGE_CURVE ( 'NONE', #138, #274, #165, .T. ) ;
#287 = CARTESIAN_POINT ( 'NONE',  ( -1.500000000000000444, 1.400000000000004796, 1.708880678190325408 ) ) ;
#288 = ORIENTED_EDGE ( 'NONE', *, *, #172, .F. ) ;
#289 = ORIENTED_EDGE ( 'NONE', *, *, #286, .T. ) ;
#290 = DIRECTION ( 'NONE',  ( -0.000000000000000000, -1.000000000000000000, 0.000000000000000000 ) ) ;
#291 = EDGE_CURVE ( 'NONE', #53, #312, #385, .T. ) ;
#292 = VECTOR ( 'NONE', #223, 1000.000000000000000 ) ;
#293 = DIRECTION ( 'NONE',  ( 9.348699221200696566E-17, 0.5735764363510473807, 0.8191520442889909104 ) ) ;
#294 = LINE ( 'NONE', #383, #109 ) ;
#295 = LINE ( 'NONE', #384, #283 ) ;
#296 = EDGE_CURVE ( 'NONE', #216, #280, #196, .T. ) ;
#297 = DIRECTION ( 'NONE',  ( -1.141265444721583757E-16, -0.000000000000000000, -1.000000000000000000 ) ) ;
#298 = DIRECTION ( 'NONE',  ( -1.141265444721583757E-16, 0.000000000000000000, 1.000000000000000000 ) ) ;
#299 = APPLICATION_PROTOCOL_DEFINITION ( 'draft international standard', 'automotive_design', 1998, #92 ) ;
#300 = LINE ( 'NONE', #397, #94 ) ;
#301 = EDGE_CURVE ( 'NONE', #312, #330, #342, .T. ) ;
#302 = ORIENTED_EDGE ( 'NONE', *, *, #190, .F. ) ;
#303 = VECTOR ( 'NONE', #205, 1000.000000000000000 ) ;
#304 = CARTESIAN_POINT ( 'NONE',  ( 0.000000000000000000, 1.000000000000000000, -0.4041232037028948954 ) ) ;
#305 = DIRECTION ( 'NONE',  ( 1.000000000000000000, -0.000000000000000000, 0.000000000000000000 ) ) ;
#306 = EDGE_LOOP ( 'NONE', ( #61, #261, #173, #260, #340, #262, #321 ) ) ;
#307 = EDGE_CURVE ( 'NONE', #285, #53, #44, .T. ) ;
#308 = LINE ( 'NONE', #87, #381 ) ;
#309 = EDGE_LOOP ( 'NONE', ( #125, #345, #88, #218, #154, #134 ) ) ;
#310 = VECTOR ( 'NONE', #52, 1000.000000000000000 ) ;
#311 = CARTESIAN_POINT ( 'NONE',  ( -1.500000000000000666, 1.191234876072142734, 2.001680636480197784 ) ) ;
#312 = VERTEX_POINT ( 'NONE', #7 ) ;
#313 = CARTESIAN_POINT ( 'NONE',  ( 1.015228504149118027, 1.399999999999999911, 1.792529224914018560 ) ) ;
#314 = ORIENTED_EDGE ( 'NONE', *, *, #227, .T. ) ;
#315 = DIRECTION ( 'NONE',  ( 0.000000000000000000, -1.000000000000000000, 0.000000000000000000 ) ) ;
#316 = ORIENTED_EDGE ( 'NONE', *, *, #136, .T. ) ;
#317 = EDGE_CURVE ( 'NONE', #216, #23, #3, .T. ) ;
#318 = VECTOR ( 'NONE', #220, 1000.000000000000114 ) ;
#319 = CARTESIAN_POINT ( 'NONE',  ( -0.9999999999999978906, 1.000000000000000000, -1.000000000000000000 ) ) ;
#320 = ORIENTED_EDGE ( 'NONE', *, *, #79, .F. ) ;
#321 = ORIENTED_EDGE ( 'NONE', *, *, #386, .T. ) ;
#322 = FILL_AREA_STYLE_COLOUR ( '', #46 ) ;
#323 = SURFACE_SIDE_STYLE ('',( #206 ) ) ;
#324 = CARTESIAN_POINT ( 'NONE',  ( 0.000000000000000000, 0.000000000000000000, 0.000000000000000000 ) ) ;
#325 =( NAMED_UNIT ( * ) PLANE_ANGLE_UNIT ( ) SI_UNIT ( $, .RADIAN. ) );
#326 = MECHANICAL_DESIGN_GEOMETRIC_PRESENTATION_REPRESENTATION (  '', ( #207 ), #271 ) ;
#327 = CARTESIAN_POINT ( 'NONE',  ( -1.500000000000000000, 1.000000000000000000, -0.4041232037028948954 ) ) ;
#328 = DIRECTION ( 'NONE',  ( -1.000000000000000000, 0.000000000000000000, 1.141265444721583757E-16 ) ) ;
#329 = CARTESIAN_POINT ( 'NONE',  ( 1.499999999999999778, 1.115317123975225755, 2.023071424482510317 ) ) ;
#330 = VERTEX_POINT ( 'NONE', #103 ) ;
#331 = CARTESIAN_POINT ( 'NONE',  ( -1.500000000000000000, 0.000000000000000000, -1.000000000000000000 ) ) ;
#332 = CARTESIAN_POINT ( 'NONE',  ( -1.499999999999998224, 4.336808689942017736E-16, 2.337399059887139696 ) ) ;
#333 = EDGE_LOOP ( 'NONE', ( #189, #120, #99, #288 ) ) ;
#334 = AXIS2_PLACEMENT_3D ( 'NONE', #398, #315, #37 ) ;
#335 = CARTESIAN_POINT ( 'NONE',  ( -1.500000000000000444, 1.000000000000000000, 0.7999999999999999334 ) ) ;
#336 = CARTESIAN_POINT ( 'NONE',  ( 0.5171890237759919629, 2.242947686199352974E-16, 2.659913348070907624 ) ) ;
#337 = ORIENTED_EDGE ( 'NONE', *, *, #136, .F. ) ;
#338 = DIRECTION ( 'NONE',  ( 0.000000000000000000, 0.000000000000000000, 1.000000000000000000 ) ) ;
#339 = PLANE ( 'NONE',  #113 ) ;
#340 = ORIENTED_EDGE ( 'NONE', *, *, #236, .F. ) ;
#341 = EDGE_CURVE ( 'NONE', #285, #280, #131, .T. ) ;
#342 = LINE ( 'NONE', #195, #228 ) ;
#343 = PLANE ( 'NONE',  #350 ) ;
#344 = CARTESIAN_POINT ( 'NONE',  ( -1.500000000000000222, 0.000000000000000000, 2.337399059887139252 ) ) ;
#345 = ORIENTED_EDGE ( 'NONE', *, *, #296, .T. ) ;
#346 = CARTESIAN_POINT ( 'NONE',  ( 0.5553836517735331046, 1.399999999999887335, 2.182663243970466294 ) ) ;
#347 = DIRECTION ( 'NONE',  ( 0.000000000000000000, 1.000000000000000000, 0.000000000000000000 ) ) ;
#348 = CARTESIAN_POINT ( 'NONE',  ( 1.649976384609409541, 1.102365630357457826, 1.974749388886930523 ) ) ;
#349 = DIRECTION ( 'NONE',  ( 1.141265444721583757E-16, 0.000000000000000000, -1.000000000000000000 ) ) ;
#350 = AXIS2_PLACEMENT_3D ( 'NONE', #19, #49, #290 ) ;
#351 = ORIENTED_EDGE ( 'NONE', *, *, #97, .T. ) ;
#352 = ADVANCED_FACE ( 'NONE', ( #65 ), #270, .T. ) ;
#353 = LINE ( 'NONE', #237, #39 ) ;
#354 = ADVANCED_BREP_SHAPE_REPRESENTATION ( 'BTN Attacher 1#', ( #126, #116 ), #356 ) ;
#355 = CARTESIAN_POINT ( 'NONE',  ( 1.500000000000000222, 1.399999999999999911, 1.617819426984755227 ) ) ;
#356 =( GEOMETRIC_REPRESENTATION_CONTEXT ( 3 ) GLOBAL_UNCERTAINTY_ASSIGNED_CONTEXT ( ( #181 ) ) GLOBAL_UNIT_ASSIGNED_CONTEXT ( ( #127, #194, #54 ) ) REPRESENTATION_CONTEXT ( 'NONE', 'WORKASPACE' ) );
#357 = DIRECTION ( 'NONE',  ( 0.5407162030609378167, 0.5407162030609377057, 0.6444004775717702138 ) ) ;
#358 = CARTESIAN_POINT ( 'NONE',  ( 1.500000000000000000, 1.000000000000000000, -0.4041232037028950064 ) ) ;
#359 = EDGE_CURVE ( 'NONE', #252, #132, #159, .T. ) ;
#360 = FILL_AREA_STYLE ('',( #322 ) ) ;
#361 = LINE ( 'NONE', #327, #310 ) ;
#362 = VECTOR ( 'NONE', #273, 1000.000000000000000 ) ;
#363 = CARTESIAN_POINT ( 'NONE',  ( 1.500000000000000000, 0.000000000000000000, -1.000000000000000000 ) ) ;
#364 = ORIENTED_EDGE ( 'NONE', *, *, #106, .T. ) ;
#365 = CARTESIAN_POINT ( 'NONE',  ( -0.5171880246749693821, 2.242947686199352974E-16, 2.659914950228069674 ) ) ;
#366 = LINE ( 'NONE', #363, #292 ) ;
#367 = ORIENTED_EDGE ( 'NONE', *, *, #341, .T. ) ;
#368 = PRESENTATION_LAYER_ASSIGNMENT (  '', '', ( #207 ) ) ;
#369 = FACE_OUTER_BOUND ( 'NONE', #6, .T. ) ;
#370 = CARTESIAN_POINT ( 'NONE',  ( -1.500000000000000444, 2.000000000000000000, 2.228148006742113552 ) ) ;
#371 = CARTESIAN_POINT ( 'NONE',  ( -1.517411409969162905, 1.399999999999999911, 1.611508349098714099 ) ) ;
#372 = CARTESIAN_POINT ( 'NONE',  ( 1.026498781425029927, 1.400000000000000355, 1.790746073530908644 ) ) ;
#373 = EDGE_LOOP ( 'NONE', ( #314, #230, #69, #1 ) ) ;
#374 = VECTOR ( 'NONE', #174, 1000.000000000000000 ) ;
#375 = ADVANCED_FACE ( 'NONE', ( #369 ), #28, .F. ) ;
#376 = CARTESIAN_POINT ( 'NONE',  ( 1.500000000000000222, 3.272523262990679971, 1.415119240995410088 ) ) ;
#377 = VERTEX_POINT ( 'NONE', #399 ) ;
#378 = CARTESIAN_POINT ( 'NONE',  ( 0.5650323784374993163, 1.108502809461019867, 2.264813860764562037 ) ) ;
#379 = VERTEX_POINT ( 'NONE', #59 ) ;
#380 = ORIENTED_EDGE ( 'NONE', *, *, #75, .F. ) ;
#381 = VECTOR ( 'NONE', #180, 1000.000000000000000 ) ;
#382 = CARTESIAN_POINT ( 'NONE',  ( 0.000000000000000000, 1.000000000000000000, 0.000000000000000000 ) ) ;
#383 = CARTESIAN_POINT ( 'NONE',  ( 1.500000000000000000, 0.4999999999999978351, -1.000000000000000000 ) ) ;
#384 = CARTESIAN_POINT ( 'NONE',  ( 1.061438981621044109, 0.5614389816210439976, -0.9267798729277888503 ) ) ;
#385 = B_SPLINE_CURVE_WITH_KNOTS ( 'NONE', 3,
 ( #5, #233, #281, #137, #167, #229, #313, #279 ),
 .UNSPECIFIED., .F., .F.,
 ( 4, 2, 2, 4 ),
 ( 0.000000000000000000, 0.0007624254491577281065, 0.001524850898315456213, 0.003049701796630912426 ),
 .UNSPECIFIED. ) ;
#386 = EDGE_CURVE ( 'NONE', #42, #280, #184, .T. ) ;
#387 = CARTESIAN_POINT ( 'NONE',  ( 1.500000000000000222, 1.267942713657721931, 1.945490860199379890 ) ) ;
#388 = DIRECTION ( 'NONE',  ( 0.000000000000000000, 1.000000000000000000, -0.000000000000000000 ) ) ;
#389 = DIRECTION ( 'NONE',  ( 0.000000000000000000, 0.7660444431189767922, -0.6427876096865409172 ) ) ;
#390 = PRODUCT_DEFINITION_FORMATION_WITH_SPECIFIED_SOURCE ( 'ไป', '', #121, .NOT_KNOWN. ) ;
#391 = CARTESIAN_POINT ( 'NONE',  ( 1.500000000000000000, 1.000000000000000000, -1.000000000000000000 ) ) ;
#392 = PLANE ( 'NONE',  #241 ) ;
#393 = VERTEX_POINT ( 'NONE', #335 ) ;
#394 = PRODUCT_DEFINITION_SHAPE ( 'NONE', 'NONE',  #64 ) ;
#395 = CARTESIAN_POINT ( 'NONE',  ( -1.500000000000000000, 1.000000000000000000, -1.000000000000000000 ) ) ;
#396 = EDGE_LOOP ( 'NONE', ( #250, #380, #302, #91 ) ) ;
#397 = CARTESIAN_POINT ( 'NONE',  ( 0.9999999999999978906, 0.000000000000000000, -1.000000000000000000 ) ) ;
#398 = CARTESIAN_POINT ( 'NONE',  ( -7.080021082793381887E-06, 0.000000000000000000, -2.233572631150015475 ) ) ;
#399 = CARTESIAN_POINT ( 'NONE',  ( -1.500000000000000444, 1.399999999999999689, 1.371259202696846868 ) ) ;
#400 = CARTESIAN_POINT ( 'NONE',  ( 1.098885367798812185, 1.399999999999774536, 2.088478783762488966 ) ) ;
ENDSEC;
END-ISO-10303-21;
