ISO-10303-21;
HEADER;
FILE_DESCRIPTION (( 'STEP AP214' ),
    '1' );
FILE_NAME ('BTN Attacher 000#.STEP',
    '2026-09-07T07:16:54',
    ( '' ),
    ( '' ),
    'SwSTEP 2.0',
    'SolidWorks 2026',
    '' );
FILE_SCHEMA (( 'AUTOMOTIVE_DESIGN' ));
ENDSEC;

DATA;
#1 = CYLINDRICAL_SURFACE ( 'NONE', #27, 1.500000000000000000 ) ;
#2 = VECTOR ( 'NONE', #69, 1000.000000000000000 ) ;
#3 = ORIENTED_EDGE ( 'NONE', *, *, #59, .F. ) ;
#4 = EDGE_CURVE ( 'NONE', #230, #92, #434, .T. ) ;
#5 = PLANE ( 'NONE',  #374 ) ;
#6 = VERTEX_POINT ( 'NONE', #158 ) ;
#7 = CARTESIAN_POINT ( 'NONE',  ( -1.500000000000000444, 0.000000000000000000, 1.999999999999997335 ) ) ;
#8 = EDGE_LOOP ( 'NONE', ( #58, #207, #203, #281, #63, #24, #79, #382, #274 ) ) ;
#9 = CARTESIAN_POINT ( 'NONE',  ( -1.500000000000000000, 1.000000000000000000, -1.000000000000000000 ) ) ;
#10 = DIRECTION ( 'NONE',  ( -1.000000000000000000, 0.000000000000000000, 0.000000000000000000 ) ) ;
#11 = EDGE_CURVE ( 'NONE', #380, #421, #363, .T. ) ;
#12 = CARTESIAN_POINT ( 'NONE',  ( -1.500000000000000444, 1.000000000000000000, 2.799999999999999822 ) ) ;
#13 = LINE ( 'NONE', #14, #117 ) ;
#14 = CARTESIAN_POINT ( 'NONE',  ( 1.500000000000000444, 0.9534028740753672793, 2.799999999999999822 ) ) ;
#15 = CARTESIAN_POINT ( 'NONE',  ( 0.000000000000000000, 0.000000000000000000, 0.000000000000000000 ) ) ;
#16 = PRODUCT_RELATED_PRODUCT_CATEGORY ( 'part', '', ( #131 ) ) ;
#17 = DIRECTION ( 'NONE',  ( 1.000000000000000000, 0.000000000000000000, 0.000000000000000000 ) ) ;
#18 = ORIENTED_EDGE ( 'NONE', *, *, #289, .F. ) ;
#19 = APPLICATION_CONTEXT ( 'automotive_design' ) ;
#20 = VECTOR ( 'NONE', #406, 1000.000000000000114 ) ;
#21 = DIRECTION ( 'NONE',  ( -0.000000000000000000, -0.000000000000000000, 1.000000000000000000 ) ) ;
#22 = LINE ( 'NONE', #266, #20 ) ;
#23 = CARTESIAN_POINT ( 'NONE',  ( 1.329596140492041112, 0.7834631812238955773, -0.6072026154634229123 ) ) ;
#24 = ORIENTED_EDGE ( 'NONE', *, *, #46, .T. ) ;
#25 = EDGE_CURVE ( 'NONE', #380, #373, #327, .T. ) ;
#26 = LINE ( 'NONE', #372, #94 ) ;
#27 = AXIS2_PLACEMENT_3D ( 'NONE', #114, #390, #360 ) ;
#28 = LINE ( 'NONE', #276, #179 ) ;
#29 = ORIENTED_EDGE ( 'NONE', *, *, #316, .F. ) ;
#30 = CARTESIAN_POINT ( 'NONE',  ( -1.032088886237953806, 0.5320888862379536954, -0.9617579545435693822 ) ) ;
#31 = ORIENTED_EDGE ( 'NONE', *, *, #80, .F. ) ;
#32 = FACE_OUTER_BOUND ( 'NONE', #457, .T. ) ;
#33 = ORIENTED_EDGE ( 'NONE', *, *, #59, .T. ) ;
#34 = AXIS2_PLACEMENT_3D ( 'NONE', #112, #85, #422 ) ;
#35 = CARTESIAN_POINT ( 'NONE',  ( 0.000000000000000000, 0.000000000000000000, 0.000000000000000000 ) ) ;
#36 = VERTEX_POINT ( 'NONE', #365 ) ;
#37 = EDGE_CURVE ( 'NONE', #177, #413, #156, .T. ) ;
#38 = FACE_OUTER_BOUND ( 'NONE', #8, .T. ) ;
#39 = ORIENTED_EDGE ( 'NONE', *, *, #90, .F. ) ;
#40 = EDGE_CURVE ( 'NONE', #190, #380, #13, .T. ) ;
#41 = CARTESIAN_POINT ( 'NONE',  ( -1.500000000000000444, 0.9534028740753675013, 2.799999999999999822 ) ) ;
#42 = ORIENTED_EDGE ( 'NONE', *, *, #90, .T. ) ;
#43 = CARTESIAN_POINT ( 'NONE',  ( -0.9999999999999978906, 0.000000000000000000, -1.000000000000000000 ) ) ;
#44 = ORIENTED_EDGE ( 'NONE', *, *, #302, .F. ) ;
#45 = CARTESIAN_POINT ( 'NONE',  ( 1.500000000000000444, 1.499358225474672235, 2.799999999999999822 ) ) ;
#46 = EDGE_CURVE ( 'NONE', #244, #6, #440, .T. ) ;
#47 = DIRECTION ( 'NONE',  ( 0.000000000000000000, -1.000000000000000000, 0.000000000000000000 ) ) ;
#48 = ADVANCED_FACE ( 'NONE', ( #361 ), #356, .F. ) ;
#49 = DIRECTION ( 'NONE',  ( 0.000000000000000000, 0.000000000000000000, 1.000000000000000000 ) ) ;
#50 = CARTESIAN_POINT ( 'NONE',  ( 1.500000000000000000, 0.000000000000000000, -1.000000000000000000 ) ) ;
#51 = DIRECTION ( 'NONE',  ( 1.000000000000000000, 0.000000000000000000, 0.000000000000000000 ) ) ;
#52 = PRODUCT_DEFINITION ( 'ๆ', '', #350, #180 ) ;
#53 = FACE_OUTER_BOUND ( 'NONE', #73, .T. ) ;
#54 = DIRECTION ( 'NONE',  ( 0.000000000000000000, 0.000000000000000000, 1.000000000000000000 ) ) ;
#55 = CLOSED_SHELL ( 'NONE', ( #432, #123, #352, #366, #196, #231, #170, #125, #417, #48, #451, #142, #237, #371 ) ) ;
#56 = MANIFOLD_SOLID_BREP ( '\X2\570689d2\X0\2', #55 ) ;
#57 = CARTESIAN_POINT ( 'NONE',  ( 1.061438981621044109, 0.5614389816210439976, -0.9267798729277888503 ) ) ;
#58 = ORIENTED_EDGE ( 'NONE', *, *, #398, .T. ) ;
#59 = EDGE_CURVE ( 'NONE', #442, #141, #200, .T. ) ;
#60 = DIRECTION ( 'NONE',  ( 0.5407162030609378167, 0.5407162030609377057, 0.6444004775717702138 ) ) ;
#61 = ORIENTED_EDGE ( 'NONE', *, *, #378, .F. ) ;
#62 = CARTESIAN_POINT ( 'NONE',  ( -1.500000000000000444, 2.072578233334808395, 1.800000000000000044 ) ) ;
#63 = ORIENTED_EDGE ( 'NONE', *, *, #297, .T. ) ;
#64 = DIRECTION ( 'NONE',  ( 0.000000000000000000, -1.000000000000000000, 0.000000000000000000 ) ) ;
#65 = ORIENTED_EDGE ( 'NONE', *, *, #220, .F. ) ;
#66 = DIRECTION ( 'NONE',  ( 0.000000000000000000, -0.000000000000000000, -1.000000000000000000 ) ) ;
#67 = ORIENTED_EDGE ( 'NONE', *, *, #410, .F. ) ;
#68 = VECTOR ( 'NONE', #208, 1000.000000000000000 ) ;
#69 = DIRECTION ( 'NONE',  ( -1.141265444721583757E-16, -0.000000000000000000, -1.000000000000000000 ) ) ;
#70 = VERTEX_POINT ( 'NONE', #335 ) ;
#71 = VECTOR ( 'NONE', #386, 1000.000000000000000 ) ;
#72 = CARTESIAN_POINT ( 'NONE',  ( -1.500000000000000444, 0.5351768109448616917, 2.449066664678465788 ) ) ;
#73 = EDGE_LOOP ( 'NONE', ( #385, #168, #197, #147, #44 ) ) ;
#74 = EDGE_CURVE ( 'NONE', #230, #242, #408, .T. ) ;
#75 = CARTESIAN_POINT ( 'NONE',  ( 0.9999999999999978906, 0.000000000000000000, -1.000000000000000000 ) ) ;
#76 = DIRECTION ( 'NONE',  ( -0.7660444431189766812, 0.000000000000000000, 0.6427876096865409172 ) ) ;
#77 = LINE ( 'NONE', #191, #148 ) ;
#78 = STYLED_ITEM ( 'NONE', ( #93 ), #56 ) ;
#79 = ORIENTED_EDGE ( 'NONE', *, *, #204, .F. ) ;
#80 = EDGE_CURVE ( 'NONE', #108, #106, #441, .T. ) ;
#81 = LINE ( 'NONE', #425, #328 ) ;
#82 = CARTESIAN_POINT ( 'NONE',  ( 1.500000000000000222, 0.06443263463840748217, 0.1149657687835883013 ) ) ;
#83 = DIRECTION ( 'NONE',  ( 0.000000000000000000, 0.000000000000000000, 1.000000000000000000 ) ) ;
#84 = ORIENTED_EDGE ( 'NONE', *, *, #331, .F. ) ;
#85 = DIRECTION ( 'NONE',  ( 0.000000000000000000, 0.7660444431189767922, -0.6427876096865409172 ) ) ;
#86 = FILL_AREA_STYLE_COLOUR ( '', #436 ) ;
#87 = DIRECTION ( 'NONE',  ( 1.000000000000000000, 0.000000000000000000, 0.000000000000000000 ) ) ;
#88 = CARTESIAN_POINT ( 'NONE',  ( -1.500000000000000444, 2.000000000000000000, 2.799999999999999822 ) ) ;
#89 = AXIS2_PLACEMENT_3D ( 'NONE', #427, #395, #83 ) ;
#90 = EDGE_CURVE ( 'NONE', #92, #212, #99, .T. ) ;
#91 = SHAPE_DEFINITION_REPRESENTATION ( #341, #449 ) ;
#92 = VERTEX_POINT ( 'NONE', #303 ) ;
#93 = PRESENTATION_STYLE_ASSIGNMENT (( #320 ) ) ;
#94 = VECTOR ( 'NONE', #264, 1000.000000000000000 ) ;
#95 = EDGE_CURVE ( 'NONE', #394, #421, #233, .T. ) ;
#96 = DIRECTION ( 'NONE',  ( -0.000000000000000000, -1.000000000000000000, 0.000000000000000000 ) ) ;
#97 = AXIS2_PLACEMENT_3D ( 'NONE', #62, #456, #206 ) ;
#98 = ORIENTED_EDGE ( 'NONE', *, *, #383, .F. ) ;
#99 = LINE ( 'NONE', #57, #370 ) ;
#100 = FACE_OUTER_BOUND ( 'NONE', #217, .T. ) ;
#101 = VERTEX_POINT ( 'NONE', #340 ) ;
#102 =( GEOMETRIC_REPRESENTATION_CONTEXT ( 3 ) GLOBAL_UNCERTAINTY_ASSIGNED_CONTEXT ( ( #151 ) ) GLOBAL_UNIT_ASSIGNED_CONTEXT ( ( #236, #368, #298 ) ) REPRESENTATION_CONTEXT ( 'NONE', 'WORKASPACE' ) );
#103 = CARTESIAN_POINT ( 'NONE',  ( -1.500000000000000000, 0.000000000000000000, -0.4041232037028950064 ) ) ;
#104 = ORIENTED_EDGE ( 'NONE', *, *, #204, .T. ) ;
#105 = FACE_OUTER_BOUND ( 'NONE', #136, .T. ) ;
#106 = VERTEX_POINT ( 'NONE', #232 ) ;
#107 = LINE ( 'NONE', #245, #443 ) ;
#108 = VERTEX_POINT ( 'NONE', #128 ) ;
#109 = EDGE_CURVE ( 'NONE', #190, #260, #26, .T. ) ;
#110 = CARTESIAN_POINT ( 'NONE',  ( -1.172238603733830598, 0.6722386037338301534, -0.7947340252167951480 ) ) ;
#111 = ORIENTED_EDGE ( 'NONE', *, *, #11, .F. ) ;
#112 = CARTESIAN_POINT ( 'NONE',  ( 0.000000000000000000, 1.000000000000000000, -0.4041232037028948954 ) ) ;
#113 = CARTESIAN_POINT ( 'NONE',  ( 0.000000000000000000, 0.000000000000000000, 1.999999999999998224 ) ) ;
#114 = CARTESIAN_POINT ( 'NONE',  ( -1.500000000000000444, 1.499358225474672235, 1.300000000000000044 ) ) ;
#115 = ORIENTED_EDGE ( 'NONE', *, *, #37, .F. ) ;
#116 = PLANE ( 'NONE',  #342 ) ;
#117 = VECTOR ( 'NONE', #225, 1000.000000000000000 ) ;
#118 = CARTESIAN_POINT ( 'NONE',  ( 1.500000000000000000, 0.4999999999999978351, -1.000000000000000000 ) ) ;
#119 = AXIS2_PLACEMENT_3D ( 'NONE', #35, #271, #181 ) ;
#120 = CARTESIAN_POINT ( 'NONE',  ( -1.500000000000000222, 1.000000000000000000, 0.3238172648295121747 ) ) ;
#121 = ORIENTED_EDGE ( 'NONE', *, *, #159, .F. ) ;
#122 = DIRECTION ( 'NONE',  ( -1.000000000000000000, 0.000000000000000000, 0.000000000000000000 ) ) ;
#123 = ADVANCED_FACE ( 'NONE', ( #163 ), #438, .F. ) ;
#124 = DIRECTION ( 'NONE',  ( 1.084202172485504434E-16, 3.577867169202164632E-15, 1.000000000000000000 ) ) ;
#125 = ADVANCED_FACE ( 'NONE', ( #53 ), #401, .F. ) ;
#126 = DIRECTION ( 'NONE',  ( 0.7660444431189766812, 0.000000000000000000, 0.6427876096865409172 ) ) ;
#127 = APPLICATION_PROTOCOL_DEFINITION ( 'draft international standard', 'automotive_design', 1998, #364 ) ;
#128 = CARTESIAN_POINT ( 'NONE',  ( -1.500000000000000444, 2.000000000000000000, 1.739099631177264405 ) ) ;
#129 = CARTESIAN_POINT ( 'NONE',  ( -1.500000000000000000, 1.000000000000000000, -0.4041232037028950064 ) ) ;
#130 = EDGE_CURVE ( 'NONE', #212, #244, #275, .T. ) ;
#131 = PRODUCT ( 'BTN Attacher 000#', 'BTN Attacher 000#', '', ( #265 ) ) ;
#132 = DIRECTION ( 'NONE',  ( 1.084202172485504434E-16, 2.710505431213761085E-15, -1.000000000000000000 ) ) ;
#133 = LINE ( 'NONE', #409, #71 ) ;
#134 = CARTESIAN_POINT ( 'NONE',  ( 1.500000000000000000, 1.000000000000000000, -0.4041232037028950064 ) ) ;
#135 = EDGE_CURVE ( 'NONE', #108, #70, #22, .T. ) ;
#136 = EDGE_LOOP ( 'NONE', ( #115, #387, #324, #29 ) ) ;
#137 = PRESENTATION_LAYER_ASSIGNMENT (  '', '', ( #78 ) ) ;
#138 = LINE ( 'NONE', #343, #201 ) ;
#139 = ORIENTED_EDGE ( 'NONE', *, *, #289, .T. ) ;
#140 = DIRECTION ( 'NONE',  ( 0.000000000000000000, -1.000000000000000000, 0.000000000000000000 ) ) ;
#141 = VERTEX_POINT ( 'NONE', #263 ) ;
#142 = ADVANCED_FACE ( 'NONE', ( #235 ), #198, .F. ) ;
#143 = DIRECTION ( 'NONE',  ( 1.000000000000000000, -0.000000000000000000, -1.141265444721583757E-16 ) ) ;
#144 = ORIENTED_EDGE ( 'NONE', *, *, #95, .T. ) ;
#145 = CIRCLE ( 'NONE', #213, 1.500000000000000000 ) ;
#146 = CYLINDRICAL_SURFACE ( 'NONE', #89, 2.000000000000000000 ) ;
#147 = ORIENTED_EDGE ( 'NONE', *, *, #259, .F. ) ;
#148 = VECTOR ( 'NONE', #261, 1000.000000000000000 ) ;
#149 = DIRECTION ( 'NONE',  ( -1.000000000000000000, 0.000000000000000000, 1.141265444721583757E-16 ) ) ;
#150 = ORIENTED_EDGE ( 'NONE', *, *, #25, .F. ) ;
#151 = UNCERTAINTY_MEASURE_WITH_UNIT (LENGTH_MEASURE( 1.000000000000000082E-05 ), #236, 'distance_accuracy_value', 'NONE');
#152 = DIRECTION ( 'NONE',  ( 1.141265444721583757E-16, 0.000000000000000000, -1.000000000000000000 ) ) ;
#153 = ORIENTED_EDGE ( 'NONE', *, *, #135, .T. ) ;
#154 = PLANE ( 'NONE',  #34 ) ;
#155 = VECTOR ( 'NONE', #418, 1000.000000000000000 ) ;
#156 = LINE ( 'NONE', #82, #185 ) ;
#157 = LINE ( 'NONE', #255, #249 ) ;
#158 = CARTESIAN_POINT ( 'NONE',  ( 1.500000000000000222, 1.000000000000000000, 0.3238172648295121747 ) ) ;
#159 = EDGE_CURVE ( 'NONE', #260, #36, #429, .T. ) ;
#160 = EDGE_LOOP ( 'NONE', ( #215, #292, #104, #270 ) ) ;
#161 = CARTESIAN_POINT ( 'NONE',  ( -1.500000000000000222, 1.499358225474672235, 1.300000000000000044 ) ) ;
#162 = VECTOR ( 'NONE', #21, 1000.000000000000000 ) ;
#163 = FACE_OUTER_BOUND ( 'NONE', #377, .T. ) ;
#164 = EDGE_CURVE ( 'NONE', #242, #212, #167, .T. ) ;
#165 =( NAMED_UNIT ( * ) PLANE_ANGLE_UNIT ( ) SI_UNIT ( $, .RADIAN. ) );
#166 = CARTESIAN_POINT ( 'NONE',  ( 1.172238603733831930, 0.6722386037338314857, -0.7947340252167934826 ) ) ;
#167 = LINE ( 'NONE', #437, #155 ) ;
#168 = ORIENTED_EDGE ( 'NONE', *, *, #220, .T. ) ;
#169 = DIRECTION ( 'NONE',  ( 1.445602896647339163E-16, 0.000000000000000000, 1.000000000000000000 ) ) ;
#170 = ADVANCED_FACE ( 'NONE', ( #100 ), #211, .F. ) ;
#171 = FACE_OUTER_BOUND ( 'NONE', #160, .T. ) ;
#172 = ORIENTED_EDGE ( 'NONE', *, *, #74, .T. ) ;
#173 = CARTESIAN_POINT ( 'NONE',  ( -0.9999999999999978906, 0.4999999999999978351, -1.000000000000000000 ) ) ;
#174 = VERTEX_POINT ( 'NONE', #454 ) ;
#175 = AXIS2_PLACEMENT_3D ( 'NONE', #129, #126, #96 ) ;
#176 = LINE ( 'NONE', #311, #68 ) ;
#177 = VERTEX_POINT ( 'NONE', #384 ) ;
#178 = EDGE_CURVE ( 'NONE', #351, #190, #145, .T. ) ;
#179 = VECTOR ( 'NONE', #444, 1000.000000000000000 ) ;
#180 = PRODUCT_DEFINITION_CONTEXT ( 'detailed design', #364, 'design' ) ;
#181 = DIRECTION ( 'NONE',  ( 0.000000000000000000, 0.000000000000000000, 1.000000000000000000 ) ) ;
#182 = ORIENTED_EDGE ( 'NONE', *, *, #187, .T. ) ;
#183 = LINE ( 'NONE', #317, #284 ) ;
#184 = ORIENTED_EDGE ( 'NONE', *, *, #259, .T. ) ;
#185 = VECTOR ( 'NONE', #295, 1000.000000000000114 ) ;
#186 = PLANE ( 'NONE',  #293 ) ;
#187 = EDGE_CURVE ( 'NONE', #36, #351, #176, .T. ) ;
#188 = SURFACE_SIDE_STYLE ('',( #219 ) ) ;
#189 = FACE_OUTER_BOUND ( 'NONE', #450, .T. ) ;
#190 = VERTEX_POINT ( 'NONE', #347 ) ;
#191 = CARTESIAN_POINT ( 'NONE',  ( -1.500000000000000000, 1.000000000000000000, -0.4041232037028950064 ) ) ;
#192 = EDGE_LOOP ( 'NONE', ( #172, #428, #39, #424 ) ) ;
#193 = FACE_OUTER_BOUND ( 'NONE', #416, .T. ) ;
#194 = VECTOR ( 'NONE', #10, 1000.000000000000000 ) ;
#195 = DIRECTION ( 'NONE',  ( -1.141265444721583757E-16, -0.000000000000000000, -1.000000000000000000 ) ) ;
#196 = ADVANCED_FACE ( 'NONE', ( #171 ), #278, .T. ) ;
#197 = ORIENTED_EDGE ( 'NONE', *, *, #74, .F. ) ;
#198 = PLANE ( 'NONE',  #273 ) ;
#199 = DIRECTION ( 'NONE',  ( -0.5407162030609378167, 0.5407162030609377057, 0.6444004775717702138 ) ) ;
#200 = CIRCLE ( 'NONE', #267, 2.000000000000000000 ) ;
#201 = VECTOR ( 'NONE', #446, 1000.000000000000000 ) ;
#202 = DIRECTION ( 'NONE',  ( -1.000000000000000000, 0.000000000000000000, -1.141265444721583757E-16 ) ) ;
#203 = ORIENTED_EDGE ( 'NONE', *, *, #40, .T. ) ;
#204 = EDGE_CURVE ( 'NONE', #177, #6, #308, .T. ) ;
#205 = DIRECTION ( 'NONE',  ( 0.6427876096865409172, -0.000000000000000000, 0.7660444431189766812 ) ) ;
#206 = DIRECTION ( 'NONE',  ( -1.000000000000000000, 0.000000000000000000, 0.000000000000000000 ) ) ;
#207 = ORIENTED_EDGE ( 'NONE', *, *, #178, .T. ) ;
#208 = DIRECTION ( 'NONE',  ( 1.000000000000000000, -0.000000000000000000, -0.000000000000000000 ) ) ;
#209 = ORIENTED_EDGE ( 'NONE', *, *, #109, .F. ) ;
#210 = EDGE_CURVE ( 'NONE', #394, #396, #107, .T. ) ;
#211 = PLANE ( 'NONE',  #405 ) ;
#212 = VERTEX_POINT ( 'NONE', #214 ) ;
#213 = AXIS2_PLACEMENT_3D ( 'NONE', #345, #143, #169 ) ;
#214 = CARTESIAN_POINT ( 'NONE',  ( 1.032088886237953806, 0.5320888862379536954, -0.9617579545435693822 ) ) ;
#215 = ORIENTED_EDGE ( 'NONE', *, *, #227, .T. ) ;
#216 = CARTESIAN_POINT ( 'NONE',  ( 1.500000000000000000, 1.000000000000000000, -1.000000000000000000 ) ) ;
#217 = EDGE_LOOP ( 'NONE', ( #346, #139, #391, #322 ) ) ;
#218 = DIRECTION ( 'NONE',  ( -0.000000000000000000, -1.000000000000000000, -0.000000000000000000 ) ) ;
#219 = SURFACE_STYLE_FILL_AREA ( #286 ) ;
#220 = EDGE_CURVE ( 'NONE', #141, #242, #445, .T. ) ;
#221 = AXIS2_PLACEMENT_3D ( 'NONE', #296, #435, #337 ) ;
#222 = FACE_OUTER_BOUND ( 'NONE', #192, .T. ) ;
#223 = EDGE_LOOP ( 'NONE', ( #277, #262, #310, #184 ) ) ;
#224 = DIRECTION ( 'NONE',  ( -7.335912872304331086E-17, 0.7660444431189772363, 0.6427876096865402511 ) ) ;
#225 = DIRECTION ( 'NONE',  ( -7.335912872304331086E-17, -0.7660444431189772363, -0.6427876096865402511 ) ) ;
#226 = LINE ( 'NONE', #362, #257 ) ;
#227 = EDGE_CURVE ( 'NONE', #442, #70, #28, .T. ) ;
#228 = ORIENTED_EDGE ( 'NONE', *, *, #227, .F. ) ;
#229 = LINE ( 'NONE', #388, #367 ) ;
#230 = VERTEX_POINT ( 'NONE', #173 ) ;
#231 = ADVANCED_FACE ( 'NONE', ( #32 ), #376, .F. ) ;
#232 = CARTESIAN_POINT ( 'NONE',  ( -1.500000000000000444, 2.000000000000000000, 2.799999999999999822 ) ) ;
#233 = LINE ( 'NONE', #269, #411 ) ;
#234 = VECTOR ( 'NONE', #250, 1000.000000000000000 ) ;
#235 = FACE_OUTER_BOUND ( 'NONE', #307, .T. ) ;
#236 =( LENGTH_UNIT ( ) NAMED_UNIT ( * ) SI_UNIT ( .MILLI., .METRE. ) );
#237 = ADVANCED_FACE ( 'NONE', ( #105 ), #314, .F. ) ;
#238 = CARTESIAN_POINT ( 'NONE',  ( 0.000000000000000000, 1.000000000000000000, 0.000000000000000000 ) ) ;
#239 = MECHANICAL_DESIGN_GEOMETRIC_PRESENTATION_REPRESENTATION (  '', ( #78 ), #102 ) ;
#240 = ORIENTED_EDGE ( 'NONE', *, *, #378, .T. ) ;
#241 = DIRECTION ( 'NONE',  ( 0.6427876096865409172, -0.000000000000000000, -0.7660444431189766812 ) ) ;
#242 = VERTEX_POINT ( 'NONE', #247 ) ;
#243 = LINE ( 'NONE', #448, #268 ) ;
#244 = VERTEX_POINT ( 'NONE', #379 ) ;
#245 = CARTESIAN_POINT ( 'NONE',  ( -1.500000000000000000, 0.000000000000000000, -1.000000000000000000 ) ) ;
#246 = ORIENTED_EDGE ( 'NONE', *, *, #164, .F. ) ;
#247 = CARTESIAN_POINT ( 'NONE',  ( -1.032088886237953806, 0.5320888862379536954, -0.9617579545435693822 ) ) ;
#248 = ORIENTED_EDGE ( 'NONE', *, *, #404, .T. ) ;
#249 = VECTOR ( 'NONE', #294, 1000.000000000000000 ) ;
#250 = DIRECTION ( 'NONE',  ( -0.000000000000000000, -1.000000000000000000, -0.000000000000000000 ) ) ;
#251 = CARTESIAN_POINT ( 'NONE',  ( 1.500000000000000222, -1.000000000000000000, 0.3238172648295125633 ) ) ;
#252 = EDGE_CURVE ( 'NONE', #92, #394, #243, .T. ) ;
#253 = CARTESIAN_POINT ( 'NONE',  ( 1.500000000000000000, 1.000000000000000000, -1.000000000000000000 ) ) ;
#254 = CARTESIAN_POINT ( 'NONE',  ( 0.9999999999999978906, 1.000000000000000000, -1.000000000000000000 ) ) ;
#255 = CARTESIAN_POINT ( 'NONE',  ( 1.500000000000000444, 2.000000000000000000, 2.799999999999999822 ) ) ;
#256 = ORIENTED_EDGE ( 'NONE', *, *, #187, .F. ) ;
#257 = VECTOR ( 'NONE', #334, 1000.000000000000000 ) ;
#258 = LINE ( 'NONE', #12, #234 ) ;
#259 = EDGE_CURVE ( 'NONE', #396, #230, #133, .T. ) ;
#260 = VERTEX_POINT ( 'NONE', #72 ) ;
#261 = DIRECTION ( 'NONE',  ( 0.000000000000000000, -1.000000000000000000, 0.000000000000000000 ) ) ;
#262 = ORIENTED_EDGE ( 'NONE', *, *, #252, .T. ) ;
#263 = CARTESIAN_POINT ( 'NONE',  ( -1.500000000000000000, 0.8628211600346445964, -0.4041232037028950064 ) ) ;
#264 = DIRECTION ( 'NONE',  ( -1.000000000000000000, -0.000000000000000000, -0.000000000000000000 ) ) ;
#265 = PRODUCT_CONTEXT ( 'NONE', #19, 'mechanical' ) ;
#266 = CARTESIAN_POINT ( 'NONE',  ( -1.500000000000000222, 0.06443263463840748217, 0.1149657687835883013 ) ) ;
#267 = AXIS2_PLACEMENT_3D ( 'NONE', #399, #369, #132 ) ;
#268 = VECTOR ( 'NONE', #64, 1000.000000000000000 ) ;
#269 = CARTESIAN_POINT ( 'NONE',  ( 0.9999999999999978906, 0.000000000000000000, -1.000000000000000000 ) ) ;
#270 = ORIENTED_EDGE ( 'NONE', *, *, #331, .T. ) ;
#271 = DIRECTION ( 'NONE',  ( 0.000000000000000000, 1.000000000000000000, -0.000000000000000000 ) ) ;
#272 = LINE ( 'NONE', #103, #312 ) ;
#273 = AXIS2_PLACEMENT_3D ( 'NONE', #332, #375, #17 ) ;
#274 = ORIENTED_EDGE ( 'NONE', *, *, #338, .F. ) ;
#275 =( BOUNDED_CURVE ( )  B_SPLINE_CURVE ( 3, ( #301, #166, #23, #439 ),
 .UNSPECIFIED., .F., .F. ) 
 B_SPLINE_CURVE_WITH_KNOTS ( ( 4, 4 ),
 ( 0.8726646259971632125, 1.198269360942234352 ),
 .UNSPECIFIED. ) 
 CURVE ( )  GEOMETRIC_REPRESENTATION_ITEM ( )  RATIONAL_B_SPLINE_CURVE ( ( 1.000000000000000000, 0.9911846262163772625, 0.9911846262163772625, 1.000000000000000000 ) ) 
 REPRESENTATION_ITEM ( '' )  );
#276 = CARTESIAN_POINT ( 'NONE',  ( -1.500000000000000000, 1.000000000000000000, -1.000000000000000000 ) ) ;
#277 = ORIENTED_EDGE ( 'NONE', *, *, #4, .T. ) ;
#278 = PLANE ( 'NONE',  #400 ) ;
#279 = ORIENTED_EDGE ( 'NONE', *, *, #130, .F. ) ;
#280 = DIRECTION ( 'NONE',  ( -1.000000000000000000, -0.000000000000000000, -0.000000000000000000 ) ) ;
#281 = ORIENTED_EDGE ( 'NONE', *, *, #11, .T. ) ;
#282 = CARTESIAN_POINT ( 'NONE',  ( 1.500000000000000444, 1.000000000000000000, 2.799999999999999822 ) ) ;
#283 = ORIENTED_EDGE ( 'NONE', *, *, #40, .F. ) ;
#284 = VECTOR ( 'NONE', #285, 1000.000000000000000 ) ;
#285 = DIRECTION ( 'NONE',  ( -1.141265444721583757E-16, 0.000000000000000000, 1.000000000000000000 ) ) ;
#286 = FILL_AREA_STYLE ('',( #86 ) ) ;
#287 = FACE_OUTER_BOUND ( 'NONE', #318, .T. ) ;
#288 = EDGE_LOOP ( 'NONE', ( #42, #447, #299, #431, #304 ) ) ;
#289 = EDGE_CURVE ( 'NONE', #106, #101, #138, .T. ) ;
#290 = AXIS2_PLACEMENT_3D ( 'NONE', #161, #202, #339 ) ;
#291 = CARTESIAN_POINT ( 'NONE',  ( 1.500000000000000000, 0.000000000000000000, -0.4041232037028952284 ) ) ;
#292 = ORIENTED_EDGE ( 'NONE', *, *, #452, .T. ) ;
#293 = AXIS2_PLACEMENT_3D ( 'NONE', #430, #321, #152 ) ;
#294 = DIRECTION ( 'NONE',  ( 0.000000000000000000, 0.000000000000000000, -1.000000000000000000 ) ) ;
#295 = DIRECTION ( 'NONE',  ( 7.335912872304279317E-17, 0.7660444431189810111, 0.6427876096865356992 ) ) ;
#296 = CARTESIAN_POINT ( 'NONE',  ( -1.500000000000000444, 1.000000000000000000, 2.799999999999999822 ) ) ;
#297 = EDGE_CURVE ( 'NONE', #421, #244, #415, .T. ) ;
#298 =( NAMED_UNIT ( * ) SI_UNIT ( $, .STERADIAN. ) SOLID_ANGLE_UNIT ( ) );
#299 = ORIENTED_EDGE ( 'NONE', *, *, #297, .F. ) ;
#300 = CARTESIAN_POINT ( 'NONE',  ( -1.500000000000000000, 1.000000000000000000, -0.4041232037028949509 ) ) ;
#301 = CARTESIAN_POINT ( 'NONE',  ( 1.032088886237953806, 0.5320888862379536954, -0.9617579545435693822 ) ) ;
#302 = EDGE_CURVE ( 'NONE', #174, #396, #272, .T. ) ;
#303 = CARTESIAN_POINT ( 'NONE',  ( 0.9999999999999978906, 0.4999999999999978351, -1.000000000000000000 ) ) ;
#304 = ORIENTED_EDGE ( 'NONE', *, *, #252, .F. ) ;
#305 = DIRECTION ( 'NONE',  ( 0.000000000000000000, 0.000000000000000000, 1.000000000000000000 ) ) ;
#306 = DIRECTION ( 'NONE',  ( 0.000000000000000000, 1.000000000000000000, -0.000000000000000000 ) ) ;
#307 = EDGE_LOOP ( 'NONE', ( #283, #348, #67, #150 ) ) ;
#308 = LINE ( 'NONE', #216, #2 ) ;
#309 = VECTOR ( 'NONE', #51, 1000.000000000000000 ) ;
#310 = ORIENTED_EDGE ( 'NONE', *, *, #210, .T. ) ;
#311 = CARTESIAN_POINT ( 'NONE',  ( 1.500000000000000444, 1.499358225474672235, 2.799999999999999822 ) ) ;
#312 = VECTOR ( 'NONE', #241, 1000.000000000000114 ) ;
#313 = ORIENTED_EDGE ( 'NONE', *, *, #410, .T. ) ;
#314 = PLANE ( 'NONE',  #97 ) ;
#315 = ORIENTED_EDGE ( 'NONE', *, *, #210, .F. ) ;
#316 = EDGE_CURVE ( 'NONE', #413, #108, #81, .T. ) ;
#317 = CARTESIAN_POINT ( 'NONE',  ( -1.500000000000000000, 0.000000000000000000, -1.000000000000000000 ) ) ;
#318 = EDGE_LOOP ( 'NONE', ( #279, #246, #65, #3, #84, #344 ) ) ;
#319 = LINE ( 'NONE', #282, #402 ) ;
#320 = SURFACE_STYLE_USAGE ( .BOTH. , #188 ) ;
#321 = DIRECTION ( 'NONE',  ( 1.000000000000000000, -0.000000000000000000, 1.141265444721583757E-16 ) ) ;
#322 = ORIENTED_EDGE ( 'NONE', *, *, #316, .T. ) ;
#323 = LINE ( 'NONE', #41, #453 ) ;
#324 = ORIENTED_EDGE ( 'NONE', *, *, #135, .F. ) ;
#325 = AXIS2_PLACEMENT_3D ( 'NONE', #254, #76, #47 ) ;
#326 = DIRECTION ( 'NONE',  ( 1.141265444721583757E-16, 0.000000000000000000, 1.000000000000000000 ) ) ;
#327 = LINE ( 'NONE', #113, #194 ) ;
#328 = VECTOR ( 'NONE', #122, 1000.000000000000000 ) ;
#329 =( LENGTH_UNIT ( ) NAMED_UNIT ( * ) SI_UNIT ( .MILLI., .METRE. ) );
#330 = ORIENTED_EDGE ( 'NONE', *, *, #398, .F. ) ;
#331 = EDGE_CURVE ( 'NONE', #6, #442, #229, .T. ) ;
#332 = CARTESIAN_POINT ( 'NONE',  ( -1.500000000000000444, 0.9534028740753675013, 2.799999999999999822 ) ) ;
#333 = AXIS2_PLACEMENT_3D ( 'NONE', #251, #389, #124 ) ;
#334 = DIRECTION ( 'NONE',  ( 1.000000000000000000, 0.000000000000000000, 0.000000000000000000 ) ) ;
#335 = CARTESIAN_POINT ( 'NONE',  ( -1.500000000000000222, 1.000000000000000000, 0.8999999999999916955 ) ) ;
#336 =( NAMED_UNIT ( * ) SI_UNIT ( $, .STERADIAN. ) SOLID_ANGLE_UNIT ( ) );
#337 = DIRECTION ( 'NONE',  ( -1.000000000000000000, 0.000000000000000000, -0.000000000000000000 ) ) ;
#338 = EDGE_CURVE ( 'NONE', #101, #413, #157, .T. ) ;
#339 = DIRECTION ( 'NONE',  ( 1.445602896647339163E-16, 0.000000000000000000, -1.000000000000000000 ) ) ;
#340 = CARTESIAN_POINT ( 'NONE',  ( 1.500000000000000444, 2.000000000000000000, 2.799999999999999822 ) ) ;
#341 = PRODUCT_DEFINITION_SHAPE ( 'NONE', 'NONE',  #52 ) ;
#342 = AXIS2_PLACEMENT_3D ( 'NONE', #9, #49, #355 ) ;
#343 = CARTESIAN_POINT ( 'NONE',  ( -1.500000000000000444, 2.000000000000000000, 2.799999999999999822 ) ) ;
#344 = ORIENTED_EDGE ( 'NONE', *, *, #46, .F. ) ;
#345 = CARTESIAN_POINT ( 'NONE',  ( 1.500000000000000444, 1.499358225474672235, 1.300000000000000044 ) ) ;
#346 = ORIENTED_EDGE ( 'NONE', *, *, #80, .T. ) ;
#347 = CARTESIAN_POINT ( 'NONE',  ( 1.500000000000000444, 0.5351768109448615807, 2.449066664678466232 ) ) ;
#348 = ORIENTED_EDGE ( 'NONE', *, *, #109, .T. ) ;
#349 = UNCERTAINTY_MEASURE_WITH_UNIT (LENGTH_MEASURE( 1.000000000000000082E-05 ), #329, 'distance_accuracy_value', 'NONE');
#350 = PRODUCT_DEFINITION_FORMATION_WITH_SPECIFIED_SOURCE ( 'ไป', '', #131, .NOT_KNOWN. ) ;
#351 = VERTEX_POINT ( 'NONE', #45 ) ;
#352 = ADVANCED_FACE ( 'NONE', ( #38 ), #5, .F. ) ;
#353 = CARTESIAN_POINT ( 'NONE',  ( 0.000000000000000000, 2.000000000000000000, 0.000000000000000000 ) ) ;
#354 = ORIENTED_EDGE ( 'NONE', *, *, #159, .T. ) ;
#355 = DIRECTION ( 'NONE',  ( 1.000000000000000000, 0.000000000000000000, -0.000000000000000000 ) ) ;
#356 = PLANE ( 'NONE',  #325 ) ;
#357 = VECTOR ( 'NONE', #199, 1000.000000000000000 ) ;
#358 = FACE_OUTER_BOUND ( 'NONE', #223, .T. ) ;
#359 = ORIENTED_EDGE ( 'NONE', *, *, #383, .T. ) ;
#360 = DIRECTION ( 'NONE',  ( 0.000000000000000000, 0.000000000000000000, -1.000000000000000000 ) ) ;
#361 = FACE_OUTER_BOUND ( 'NONE', #288, .T. ) ;
#362 = CARTESIAN_POINT ( 'NONE',  ( 0.000000000000000000, 1.000000000000000000, 0.8999999999999921396 ) ) ;
#363 = LINE ( 'NONE', #50, #392 ) ;
#364 = APPLICATION_CONTEXT ( 'automotive_design' ) ;
#365 = CARTESIAN_POINT ( 'NONE',  ( -1.500000000000000444, 1.499358225474672235, 2.799999999999999822 ) ) ;
#366 = ADVANCED_FACE ( 'NONE', ( #358 ), #116, .F. ) ;
#367 = VECTOR ( 'NONE', #393, 1000.000000000000000 ) ;
#368 =( NAMED_UNIT ( * ) PLANE_ANGLE_UNIT ( ) SI_UNIT ( $, .RADIAN. ) );
#369 = DIRECTION ( 'NONE',  ( -1.000000000000000000, 0.000000000000000000, -1.141265444721583757E-16 ) ) ;
#370 = VECTOR ( 'NONE', #60, 1000.000000000000000 ) ;
#371 = ADVANCED_FACE ( 'NONE', ( #193 ), #1, .T. ) ;
#372 = CARTESIAN_POINT ( 'NONE',  ( -1.500000000000000444, 0.5351768109448618027, 2.449066664678465788 ) ) ;
#373 = VERTEX_POINT ( 'NONE', #7 ) ;
#374 = AXIS2_PLACEMENT_3D ( 'NONE', #253, #149, #326 ) ;
#375 = DIRECTION ( 'NONE',  ( 0.000000000000000000, 0.6427876096865402511, -0.7660444431189772363 ) ) ;
#376 = PLANE ( 'NONE',  #119 ) ;
#377 = EDGE_LOOP ( 'NONE', ( #240, #182, #330, #18 ) ) ;
#378 = EDGE_CURVE ( 'NONE', #106, #36, #258, .T. ) ;
#379 = CARTESIAN_POINT ( 'NONE',  ( 1.500000000000000000, 0.8628211600346445964, -0.4041232037028950064 ) ) ;
#380 = VERTEX_POINT ( 'NONE', #433 ) ;
#381 = DIRECTION ( 'NONE',  ( 0.000000000000000000, 1.000000000000000000, 0.000000000000000000 ) ) ;
#382 = ORIENTED_EDGE ( 'NONE', *, *, #37, .T. ) ;
#383 = EDGE_CURVE ( 'NONE', #174, #373, #183, .T. ) ;
#384 = CARTESIAN_POINT ( 'NONE',  ( 1.500000000000000222, 1.000000000000000000, 0.8999999999999916955 ) ) ;
#385 = ORIENTED_EDGE ( 'NONE', *, *, #404, .F. ) ;
#386 = DIRECTION ( 'NONE',  ( 0.000000000000000000, 1.000000000000000000, 0.000000000000000000 ) ) ;
#387 = ORIENTED_EDGE ( 'NONE', *, *, #452, .F. ) ;
#388 = CARTESIAN_POINT ( 'NONE',  ( 0.000000000000000000, 1.000000000000000000, 0.3238172648295125633 ) ) ;
#389 = DIRECTION ( 'NONE',  ( 1.000000000000000000, -0.000000000000000000, -1.141265444721583757E-16 ) ) ;
#390 = DIRECTION ( 'NONE',  ( 1.000000000000000000, 0.000000000000000000, 0.000000000000000000 ) ) ;
#391 = ORIENTED_EDGE ( 'NONE', *, *, #338, .T. ) ;
#392 = VECTOR ( 'NONE', #195, 1000.000000000000000 ) ;
#393 = DIRECTION ( 'NONE',  ( -1.000000000000000000, 0.000000000000000000, 0.000000000000000000 ) ) ;
#394 = VERTEX_POINT ( 'NONE', #75 ) ;
#395 = DIRECTION ( 'NONE',  ( -1.000000000000000000, 0.000000000000000000, 0.000000000000000000 ) ) ;
#396 = VERTEX_POINT ( 'NONE', #43 ) ;
#397 = CARTESIAN_POINT ( 'NONE',  ( 1.500000000000000222, 2.000000000000000000, 1.739099631177264405 ) ) ;
#398 = EDGE_CURVE ( 'NONE', #101, #351, #319, .T. ) ;
#399 = CARTESIAN_POINT ( 'NONE',  ( -1.500000000000000222, -1.000000000000000000, 0.3238172648295125633 ) ) ;
#400 = AXIS2_PLACEMENT_3D ( 'NONE', #238, #306, #305 ) ;
#401 = PLANE ( 'NONE',  #175 ) ;
#402 = VECTOR ( 'NONE', #218, 1000.000000000000000 ) ;
#403 = APPLICATION_PROTOCOL_DEFINITION ( 'draft international standard', 'automotive_design', 1998, #19 ) ;
#404 = EDGE_CURVE ( 'NONE', #141, #174, #77, .T. ) ;
#405 = AXIS2_PLACEMENT_3D ( 'NONE', #353, #140, #66 ) ;
#406 = DIRECTION ( 'NONE',  ( 7.335912872304279317E-17, -0.7660444431189810111, -0.6427876096865356992 ) ) ;
#407 = VECTOR ( 'NONE', #381, 1000.000000000000000 ) ;
#408 = LINE ( 'NONE', #300, #357 ) ;
#409 = CARTESIAN_POINT ( 'NONE',  ( -0.9999999999999978906, 1.000000000000000000, -1.000000000000000000 ) ) ;
#410 = EDGE_CURVE ( 'NONE', #373, #260, #323, .T. ) ;
#411 = VECTOR ( 'NONE', #205, 1000.000000000000114 ) ;
#412 = CARTESIAN_POINT ( 'NONE',  ( -1.329596140492040446, 0.7834631812238950221, -0.6072026154634241335 ) ) ;
#413 = VERTEX_POINT ( 'NONE', #397 ) ;
#414 =( GEOMETRIC_REPRESENTATION_CONTEXT ( 3 ) GLOBAL_UNCERTAINTY_ASSIGNED_CONTEXT ( ( #349 ) ) GLOBAL_UNIT_ASSIGNED_CONTEXT ( ( #329, #165, #336 ) ) REPRESENTATION_CONTEXT ( 'NONE', 'WORKASPACE' ) );
#415 = LINE ( 'NONE', #134, #407 ) ;
#416 = EDGE_LOOP ( 'NONE', ( #121, #209, #419, #256 ) ) ;
#417 = ADVANCED_FACE ( 'NONE', ( #222 ), #154, .T. ) ;
#418 = DIRECTION ( 'NONE',  ( 1.000000000000000000, -0.000000000000000000, -0.000000000000000000 ) ) ;
#419 = ORIENTED_EDGE ( 'NONE', *, *, #178, .F. ) ;
#420 = CARTESIAN_POINT ( 'NONE',  ( -1.500000000000000000, 0.8628211600346445964, -0.4041232037028950064 ) ) ;
#421 = VERTEX_POINT ( 'NONE', #291 ) ;
#422 = DIRECTION ( 'NONE',  ( 1.000000000000000000, -0.000000000000000000, 0.000000000000000000 ) ) ;
#423 = AXIS2_PLACEMENT_3D ( 'NONE', #15, #54, #87 ) ;
#424 = ORIENTED_EDGE ( 'NONE', *, *, #4, .F. ) ;
#425 = CARTESIAN_POINT ( 'NONE',  ( 0.000000000000000000, 2.000000000000000000, 1.739099631177264182 ) ) ;
#426 = ORIENTED_EDGE ( 'NONE', *, *, #25, .T. ) ;
#427 = CARTESIAN_POINT ( 'NONE',  ( 0.000000000000000000, -1.000000000000000000, 0.3238172648295125633 ) ) ;
#428 = ORIENTED_EDGE ( 'NONE', *, *, #164, .T. ) ;
#429 = CIRCLE ( 'NONE', #290, 1.500000000000000000 ) ;
#430 = CARTESIAN_POINT ( 'NONE',  ( -1.500000000000000000, 1.000000000000000000, -1.000000000000000000 ) ) ;
#431 = ORIENTED_EDGE ( 'NONE', *, *, #95, .F. ) ;
#432 = ADVANCED_FACE ( 'NONE', ( #189 ), #186, .F. ) ;
#433 = CARTESIAN_POINT ( 'NONE',  ( 1.500000000000000444, 0.000000000000000000, 1.999999999999997335 ) ) ;
#434 = LINE ( 'NONE', #118, #309 ) ;
#435 = DIRECTION ( 'NONE',  ( 0.000000000000000000, 0.000000000000000000, -1.000000000000000000 ) ) ;
#436 = COLOUR_RGB ( '',0.7921568627450980005, 0.8196078431372548767, 0.9333333333333333481 ) ;
#437 = CARTESIAN_POINT ( 'NONE',  ( 0.000000000000000000, 0.5320888862379536954, -0.9617579545435694932 ) ) ;
#438 = PLANE ( 'NONE',  #221 ) ;
#439 = CARTESIAN_POINT ( 'NONE',  ( 1.500000000000000000, 0.8628211600346445964, -0.4041232037028950064 ) ) ;
#440 = CIRCLE ( 'NONE', #333, 2.000000000000000000 ) ;
#441 = LINE ( 'NONE', #88, #162 ) ;
#442 = VERTEX_POINT ( 'NONE', #120 ) ;
#443 = VECTOR ( 'NONE', #280, 1000.000000000000000 ) ;
#444 = DIRECTION ( 'NONE',  ( -1.141265444721583757E-16, 0.000000000000000000, 1.000000000000000000 ) ) ;
#445 =( BOUNDED_CURVE ( )  B_SPLINE_CURVE ( 3, ( #420, #412, #110, #30 ),
 .UNSPECIFIED., .F., .T. ) 
 B_SPLINE_CURVE_WITH_KNOTS ( ( 4, 4 ),
 ( 1.943323292647559208, 2.268928027592631569 ),
 .UNSPECIFIED. ) 
 CURVE ( )  GEOMETRIC_REPRESENTATION_ITEM ( )  RATIONAL_B_SPLINE_CURVE ( ( 1.000000000000000000, 0.9911846262163772625, 0.9911846262163772625, 1.000000000000000000 ) ) 
 REPRESENTATION_ITEM ( '' )  );
#446 = DIRECTION ( 'NONE',  ( 1.000000000000000000, 0.000000000000000000, 0.000000000000000000 ) ) ;
#447 = ORIENTED_EDGE ( 'NONE', *, *, #130, .T. ) ;
#448 = CARTESIAN_POINT ( 'NONE',  ( 0.9999999999999978906, 1.000000000000000000, -1.000000000000000000 ) ) ;
#449 = ADVANCED_BREP_SHAPE_REPRESENTATION ( 'BTN Attacher 000#', ( #56, #423 ), #414 ) ;
#450 = EDGE_LOOP ( 'NONE', ( #313, #354, #61, #31, #153, #228, #33, #248, #359 ) ) ;
#451 = ADVANCED_FACE ( 'NONE', ( #287 ), #146, .T. ) ;
#452 = EDGE_CURVE ( 'NONE', #70, #177, #226, .T. ) ;
#453 = VECTOR ( 'NONE', #224, 1000.000000000000000 ) ;
#454 = CARTESIAN_POINT ( 'NONE',  ( -1.500000000000000000, 0.000000000000000000, -0.4041232037028952284 ) ) ;
#455 = ORIENTED_EDGE ( 'NONE', *, *, #302, .T. ) ;
#456 = DIRECTION ( 'NONE',  ( 0.000000000000000000, -0.6427876096865358102, 0.7660444431189811221 ) ) ;
#457 = EDGE_LOOP ( 'NONE', ( #111, #426, #98, #455, #315, #144 ) ) ;
ENDSEC;
END-ISO-10303-21;
