ISO-10303-21;
HEADER;
FILE_DESCRIPTION (( 'STEP AP214' ),
    '1' );
FILE_NAME ('Steel mesh soldering helper.STEP',
    '2026-09-09T11:30:08',
    ( '' ),
    ( '' ),
    'SwSTEP 2.0',
    'SolidWorks 2026',
    '' );
FILE_SCHEMA (( 'AUTOMOTIVE_DESIGN' ));
ENDSEC;

DATA;
#1 = LINE ( 'NONE', #339, #486 ) ;
#2 = LINE ( 'NONE', #73, #647 ) ;
#3 = ADVANCED_FACE ( 'NONE', ( #779 ), #173, .T. ) ;
#4 = ADVANCED_FACE ( 'NONE', ( #555 ), #823, .F. ) ;
#5 = ORIENTED_EDGE ( 'NONE', *, *, #282, .F. ) ;
#6 = AXIS2_PLACEMENT_3D ( 'NONE', #801, #67, #194 ) ;
#7 = CARTESIAN_POINT ( 'NONE',  ( -56.27553213106448737, -116.9830861061694804, 1.000000000000000000 ) ) ;
#8 = LINE ( 'NONE', #422, #208 ) ;
#9 = PRODUCT ( 'Steel mesh soldering helper', 'Steel mesh soldering helper', '', ( #862 ) ) ;
#10 = ORIENTED_EDGE ( 'NONE', *, *, #380, .T. ) ;
#11 = DIRECTION ( 'NONE',  ( -0.000000000000000000, -0.000000000000000000, -1.000000000000000000 ) ) ;
#12 = LINE ( 'NONE', #433, #812 ) ;
#13 = EDGE_CURVE ( 'NONE', #775, #139, #89, .T. ) ;
#14 = DIRECTION ( 'NONE',  ( 0.000000000000000000, -0.000000000000000000, -1.000000000000000000 ) ) ;
#15 = ORIENTED_EDGE ( 'NONE', *, *, #474, .T. ) ;
#16 = EDGE_CURVE ( 'NONE', #366, #275, #176, .T. ) ;
#17 = FACE_OUTER_BOUND ( 'NONE', #805, .T. ) ;
#18 = LINE ( 'NONE', #88, #102 ) ;
#19 = CARTESIAN_POINT ( 'NONE',  ( 0.000000000000000000, -121.9830861061695089, 1.000000000000000000 ) ) ;
#20 = CIRCLE ( 'NONE', #484, 4.999999999999997335 ) ;
#21 = ORIENTED_EDGE ( 'NONE', *, *, #219, .T. ) ;
#22 = FACE_OUTER_BOUND ( 'NONE', #818, .T. ) ;
#23 = DIRECTION ( 'NONE',  ( 1.000000000000000000, 0.000000000000000000, 0.000000000000000000 ) ) ;
#24 = DIRECTION ( 'NONE',  ( -1.000000000000000000, 0.000000000000000000, 0.000000000000000000 ) ) ;
#25 = VERTEX_POINT ( 'NONE', #565 ) ;
#26 = FACE_OUTER_BOUND ( 'NONE', #782, .T. ) ;
#27 = CARTESIAN_POINT ( 'NONE',  ( -37.27553213106448737, -116.9830861061695089, 0.000000000000000000 ) ) ;
#28 = FACE_BOUND ( 'NONE', #661, .T. ) ;
#29 = ORIENTED_EDGE ( 'NONE', *, *, #161, .T. ) ;
#30 = PLANE ( 'NONE',  #550 ) ;
#31 = CARTESIAN_POINT ( 'NONE',  ( 73.72446786893549131, 30.01691389383043429, 0.000000000000000000 ) ) ;
#32 = ORIENTED_EDGE ( 'NONE', *, *, #110, .T. ) ;
#33 = VECTOR ( 'NONE', #648, 1000.000000000000000 ) ;
#34 = EDGE_LOOP ( 'NONE', ( #277, #243, #398, #469 ) ) ;
#35 = CARTESIAN_POINT ( 'NONE',  ( -48.27553213106445185, 38.01691389383049113, 0.000000000000000000 ) ) ;
#36 = EDGE_LOOP ( 'NONE', ( #379, #840, #745, #545 ) ) ;
#37 = ORIENTED_EDGE ( 'NONE', *, *, #412, .F. ) ;
#38 = DIRECTION ( 'NONE',  ( 1.000000000000000000, 0.000000000000000000, 0.000000000000000000 ) ) ;
#39 = VERTEX_POINT ( 'NONE', #31 ) ;
#40 = AXIS2_PLACEMENT_3D ( 'NONE', #227, #696, #87 ) ;
#41 = EDGE_CURVE ( 'NONE', #463, #193, #428, .T. ) ;
#42 = VERTEX_POINT ( 'NONE', #85 ) ;
#43 = ADVANCED_FACE ( 'NONE', ( #224 ), #833, .T. ) ;
#44 = DIRECTION ( 'NONE',  ( -0.000000000000000000, -0.000000000000000000, -1.000000000000000000 ) ) ;
#45 = DIRECTION ( 'NONE',  ( -1.000000000000000000, 0.000000000000000000, 0.000000000000000000 ) ) ;
#46 = CYLINDRICAL_SURFACE ( 'NONE', #548, 3.672306324611238182 ) ;
#47 = DIRECTION ( 'NONE',  ( -0.000000000000000000, -0.000000000000000000, -1.000000000000000000 ) ) ;
#48 =( NAMED_UNIT ( * ) SI_UNIT ( $, .STERADIAN. ) SOLID_ANGLE_UNIT ( ) );
#49 = CARTESIAN_POINT ( 'NONE',  ( 65.72446786893544868, 38.01691389383049113, 0.000000000000000000 ) ) ;
#50 = LINE ( 'NONE', #377, #859 ) ;
#51 = AXIS2_PLACEMENT_3D ( 'NONE', #360, #635, #547 ) ;
#52 = DIRECTION ( 'NONE',  ( -1.000000000000000000, 2.071283041399217601E-13, 0.000000000000000000 ) ) ;
#53 = ORIENTED_EDGE ( 'NONE', *, *, #396, .T. ) ;
#54 = AXIS2_PLACEMENT_3D ( 'NONE', #744, #264, #125 ) ;
#55 = DIRECTION ( 'NONE',  ( -0.000000000000000000, -0.000000000000000000, -1.000000000000000000 ) ) ;
#56 = VECTOR ( 'NONE', #426, 1000.000000000000000 ) ;
#57 = PLANE ( 'NONE',  #682 ) ;
#58 = DIRECTION ( 'NONE',  ( -0.000000000000000000, -0.000000000000000000, -1.000000000000000000 ) ) ;
#59 = EDGE_LOOP ( 'NONE', ( #770, #857, #826, #419 ) ) ;
#60 = DIRECTION ( 'NONE',  ( 1.000000000000000000, 2.125036258071590584E-14, 0.000000000000000000 ) ) ;
#61 = VECTOR ( 'NONE', #473, 1000.000000000000000 ) ;
#62 = LINE ( 'NONE', #681, #706 ) ;
#63 = VERTEX_POINT ( 'NONE', #630 ) ;
#64 = LINE ( 'NONE', #342, #788 ) ;
#65 = CARTESIAN_POINT ( 'NONE',  ( 17.64893573787249537, -19.67886334772000367, 1.000000000000000000 ) ) ;
#66 = ORIENTED_EDGE ( 'NONE', *, *, #451, .T. ) ;
#67 = DIRECTION ( 'NONE',  ( -1.000000000000000000, 0.000000000000000000, 0.000000000000000000 ) ) ;
#68 = EDGE_CURVE ( 'NONE', #170, #290, #20, .T. ) ;
#69 = DIRECTION ( 'NONE',  ( -1.000000000000000000, 0.000000000000000000, 0.000000000000000000 ) ) ;
#70 = AXIS2_PLACEMENT_3D ( 'NONE', #353, #757, #625 ) ;
#71 = ORIENTED_EDGE ( 'NONE', *, *, #541, .F. ) ;
#72 = CARTESIAN_POINT ( 'NONE',  ( -0.1872999745999499033, 1.215506550571220925E-18, 1.000000000000000000 ) ) ;
#73 = CARTESIAN_POINT ( 'NONE',  ( 73.72446786893551973, -53.98308610616945913, 1.000000000000000000 ) ) ;
#74 = CIRCLE ( 'NONE', #107, 8.000000000000007105 ) ;
#75 = ORIENTED_EDGE ( 'NONE', *, *, #250, .F. ) ;
#76 = FACE_OUTER_BOUND ( 'NONE', #457, .T. ) ;
#77 = ADVANCED_FACE ( 'NONE', ( #766 ), #560, .F. ) ;
#78 = CARTESIAN_POINT ( 'NONE',  ( 0.000000000000000000, -6.247236474473000456, 1.000000000000000000 ) ) ;
#79 = APPLICATION_CONTEXT ( 'automotive_design' ) ;
#80 = CARTESIAN_POINT ( 'NONE',  ( 73.72446786893551973, -53.98308610616945913, 1.000000000000000000 ) ) ;
#81 = EDGE_CURVE ( 'NONE', #728, #114, #845, .T. ) ;
#82 = ORIENTED_EDGE ( 'NONE', *, *, #250, .T. ) ;
#83 = CARTESIAN_POINT ( 'NONE',  ( -24.27553213106448737, -69.98308610616950887, 1.000000000000000000 ) ) ;
#84 = DIRECTION ( 'NONE',  ( 0.000000000000000000, 1.000000000000000000, -0.000000000000000000 ) ) ;
#85 = CARTESIAN_POINT ( 'NONE',  ( 73.72446786893549131, 30.01691389383043429, 1.000000000000000000 ) ) ;
#86 = ORIENTED_EDGE ( 'NONE', *, *, #16, .T. ) ;
#87 = DIRECTION ( 'NONE',  ( -1.000000000000000000, 0.000000000000000000, 0.000000000000000000 ) ) ;
#88 = CARTESIAN_POINT ( 'NONE',  ( -56.27553213106450158, -9.297379686747126218E-15, 1.000000000000000000 ) ) ;
#89 = LINE ( 'NONE', #155, #337 ) ;
#90 = AXIS2_PLACEMENT_3D ( 'NONE', #531, #133, #268 ) ;
#91 = ORIENTED_EDGE ( 'NONE', *, *, #723, .F. ) ;
#92 = LINE ( 'NONE', #563, #427 ) ;
#93 = AXIS2_PLACEMENT_3D ( 'NONE', #828, #495, #576 ) ;
#94 = CARTESIAN_POINT ( 'NONE',  ( -0.1872999745999500143, -16.01503175006000035, 0.000000000000000000 ) ) ;
#95 = DIRECTION ( 'NONE',  ( 0.000000000000000000, -1.000000000000000000, 0.000000000000000000 ) ) ;
#96 = EDGE_LOOP ( 'NONE', ( #206, #127, #283, #853 ) ) ;
#97 = CIRCLE ( 'NONE', #51, 3.672306324612949702 ) ;
#98 = EDGE_CURVE ( 'NONE', #718, #432, #431, .T. ) ;
#99 = DIRECTION ( 'NONE',  ( 1.000000000000000000, 0.000000000000000000, 0.000000000000000000 ) ) ;
#100 = CIRCLE ( 'NONE', #519, 8.000000000000000000 ) ;
#101 = CARTESIAN_POINT ( 'NONE',  ( 0.000000000000000000, 0.000000000000000000, 1.000000000000000000 ) ) ;
#102 = VECTOR ( 'NONE', #759, 1000.000000000000000 ) ;
#103 = AXIS2_PLACEMENT_3D ( 'NONE', #83, #489, #702 ) ;
#104 = ORIENTED_EDGE ( 'NONE', *, *, #758, .F. ) ;
#105 = LINE ( 'NONE', #122, #817 ) ;
#106 = ORIENTED_EDGE ( 'NONE', *, *, #670, .T. ) ;
#107 = AXIS2_PLACEMENT_3D ( 'NONE', #239, #653, #724 ) ;
#108 = ORIENTED_EDGE ( 'NONE', *, *, #68, .F. ) ;
#109 = CIRCLE ( 'NONE', #335, 4.487308864618746895 ) ;
#110 = EDGE_CURVE ( 'NONE', #613, #664, #637, .T. ) ;
#111 = CARTESIAN_POINT ( 'NONE',  ( 0.000000000000000000, 0.000000000000000000, 0.000000000000000000 ) ) ;
#112 = EDGE_CURVE ( 'NONE', #442, #721, #276, .T. ) ;
#113 = ORIENTED_EDGE ( 'NONE', *, *, #110, .F. ) ;
#114 = VERTEX_POINT ( 'NONE', #80 ) ;
#115 = CARTESIAN_POINT ( 'NONE',  ( -51.27553213106445185, -121.9830861061695089, 1.000000000000000000 ) ) ;
#116 = ORIENTED_EDGE ( 'NONE', *, *, #789, .F. ) ;
#117 = ORIENTED_EDGE ( 'NONE', *, *, #329, .F. ) ;
#118 = DIRECTION ( 'NONE',  ( -1.000000000000000000, 0.000000000000000000, 0.000000000000000000 ) ) ;
#119 = DIRECTION ( 'NONE',  ( -0.000000000000000000, 0.000000000000000000, 1.000000000000000000 ) ) ;
#120 = FACE_OUTER_BOUND ( 'NONE', #624, .T. ) ;
#121 = ORIENTED_EDGE ( 'NONE', *, *, #843, .F. ) ;
#122 = CARTESIAN_POINT ( 'NONE',  ( 7.157312674623999449, -16.01503175006000035, 1.000000000000000000 ) ) ;
#123 = VERTEX_POINT ( 'NONE', #147 ) ;
#124 = DIRECTION ( 'NONE',  ( 1.000000000000000000, 0.000000000000000000, 0.000000000000000000 ) ) ;
#125 = DIRECTION ( 'NONE',  ( 1.000000000000000000, 0.000000000000000000, 0.000000000000000000 ) ) ;
#126 = CARTESIAN_POINT ( 'NONE',  ( 7.157312674627316795, -1.482482036494723852E-12, 1.000000000000000000 ) ) ;
#127 = ORIENTED_EDGE ( 'NONE', *, *, #572, .F. ) ;
#128 = CARTESIAN_POINT ( 'NONE',  ( 65.72446786893550552, 30.01691389383048758, 0.000000000000000000 ) ) ;
#129 = CARTESIAN_POINT ( 'NONE',  ( 3.485006350013000187, -16.01503175006000035, 1.000000000000000000 ) ) ;
#130 = ORIENTED_EDGE ( 'NONE', *, *, #145, .T. ) ;
#131 = CARTESIAN_POINT ( 'NONE',  ( 17.64893573787057690, 1.720039946718901041E-12, 0.000000000000000000 ) ) ;
#132 = CIRCLE ( 'NONE', #741, 8.000000000000000000 ) ;
#133 = DIRECTION ( 'NONE',  ( -0.000000000000000000, 0.000000000000000000, 1.000000000000000000 ) ) ;
#134 = ADVANCED_FACE ( 'NONE', ( #28, #434 ), #707, .T. ) ;
#135 = EDGE_CURVE ( 'NONE', #442, #42, #257, .T. ) ;
#136 = VERTEX_POINT ( 'NONE', #423 ) ;
#137 = DIRECTION ( 'NONE',  ( -0.000000000000000000, -0.000000000000000000, -1.000000000000000000 ) ) ;
#138 = DIRECTION ( 'NONE',  ( -1.026663050664789577E-14, -1.000000000000000000, 0.000000000000000000 ) ) ;
#139 = VERTEX_POINT ( 'NONE', #694 ) ;
#140 = FILL_AREA_STYLE_COLOUR ( '', #465 ) ;
#141 = AXIS2_PLACEMENT_3D ( 'NONE', #78, #293, #554 ) ;
#142 = CYLINDRICAL_SURFACE ( 'NONE', #471, 7.999999999999992895 ) ;
#143 = VERTEX_POINT ( 'NONE', #280 ) ;
#144 = CARTESIAN_POINT ( 'NONE',  ( 65.72446786893546289, -61.98308610616951597, 1.000000000000000000 ) ) ;
#145 = EDGE_CURVE ( 'NONE', #275, #170, #820, .T. ) ;
#146 = AXIS2_PLACEMENT_3D ( 'NONE', #720, #785, #38 ) ;
#147 = CARTESIAN_POINT ( 'NONE',  ( 7.157312674623999449, -16.01503175006000035, 1.000000000000000000 ) ) ;
#148 = VECTOR ( 'NONE', #55, 1000.000000000000000 ) ;
#149 = ORIENTED_EDGE ( 'NONE', *, *, #197, .F. ) ;
#150 = CYLINDRICAL_SURFACE ( 'NONE', #103, 8.000000000000000000 ) ;
#151 = DIRECTION ( 'NONE',  ( -0.000000000000000000, -0.000000000000000000, -1.000000000000000000 ) ) ;
#152 = VERTEX_POINT ( 'NONE', #249 ) ;
#153 = CYLINDRICAL_SURFACE ( 'NONE', #40, 8.000000000000007105 ) ;
#154 = VECTOR ( 'NONE', #835, 1000.000000000000000 ) ;
#155 = CARTESIAN_POINT ( 'NONE',  ( 8.674318008635999888, 0.000000000000000000, 1.000000000000000000 ) ) ;
#156 = ORIENTED_EDGE ( 'NONE', *, *, #470, .T. ) ;
#157 = LINE ( 'NONE', #7, #599 ) ;
#158 = EDGE_CURVE ( 'NONE', #193, #721, #304, .T. ) ;
#159 = DIRECTION ( 'NONE',  ( 1.000000000000000000, 0.000000000000000000, 0.000000000000000000 ) ) ;
#160 = ORIENTED_EDGE ( 'NONE', *, *, #758, .T. ) ;
#161 = EDGE_CURVE ( 'NONE', #123, #410, #105, .T. ) ;
#162 = EDGE_CURVE ( 'NONE', #371, #587, #50, .T. ) ;
#163 = CARTESIAN_POINT ( 'NONE',  ( 8.674318008635999888, 0.000000000000000000, 1.000000000000000000 ) ) ;
#164 = DIRECTION ( 'NONE',  ( 1.000000000000000000, 0.000000000000000000, 0.000000000000000000 ) ) ;
#165 = VERTEX_POINT ( 'NONE', #730 ) ;
#166 = FACE_OUTER_BOUND ( 'NONE', #96, .T. ) ;
#167 = FACE_BOUND ( 'NONE', #488, .T. ) ;
#168 = VERTEX_POINT ( 'NONE', #663 ) ;
#169 = PLANE ( 'NONE',  #536 ) ;
#170 = VERTEX_POINT ( 'NONE', #850 ) ;
#171 = EDGE_CURVE ( 'NONE', #567, #386, #185, .T. ) ;
#172 = CARTESIAN_POINT ( 'NONE',  ( 0.000000000000000000, -11.77149860299000217, 1.000000000000000000 ) ) ;
#173 = PLANE ( 'NONE',  #93 ) ;
#174 = AXIS2_PLACEMENT_3D ( 'NONE', #623, #14, #487 ) ;
#175 = ORIENTED_EDGE ( 'NONE', *, *, #41, .T. ) ;
#176 = CIRCLE ( 'NONE', #675, 5.000000000000004441 ) ;
#177 = DIRECTION ( 'NONE',  ( 1.000000000000000000, 3.304235192336779456E-16, -0.000000000000000000 ) ) ;
#178 = ORIENTED_EDGE ( 'NONE', *, *, #16, .F. ) ;
#179 = PLANE ( 'NONE',  #672 ) ;
#180 = CIRCLE ( 'NONE', #861, 4.487308864617483906 ) ;
#181 = VECTOR ( 'NONE', #207, 1000.000000000000000 ) ;
#182 = ORIENTED_EDGE ( 'NONE', *, *, #552, .F. ) ;
#183 = LINE ( 'NONE', #585, #316 ) ;
#184 = VERTEX_POINT ( 'NONE', #313 ) ;
#185 = CIRCLE ( 'NONE', #416, 5.000000000000004441 ) ;
#186 = DIRECTION ( 'NONE',  ( 0.000000000000000000, 1.000000000000000000, -0.000000000000000000 ) ) ;
#187 = CARTESIAN_POINT ( 'NONE',  ( -51.27553213106445185, -121.9830861061695089, 0.000000000000000000 ) ) ;
#188 = DIRECTION ( 'NONE',  ( 6.489624748574557211E-18, 1.000000000000000000, 0.000000000000000000 ) ) ;
#189 = ORIENTED_EDGE ( 'NONE', *, *, #485, .F. ) ;
#190 = DIRECTION ( 'NONE',  ( -0.000000000000000000, 0.000000000000000000, 1.000000000000000000 ) ) ;
#191 = CARTESIAN_POINT ( 'NONE',  ( 17.64893573787099967, -4.300008890018001573, 1.000000000000000000 ) ) ;
#192 = ADVANCED_FACE ( 'NONE', ( #511 ), #449, .F. ) ;
#193 = VERTEX_POINT ( 'NONE', #35 ) ;
#194 = DIRECTION ( 'NONE',  ( 0.000000000000000000, 0.000000000000000000, 1.000000000000000000 ) ) ;
#195 = CARTESIAN_POINT ( 'NONE',  ( 17.64893573787057690, 1.720039946718901041E-12, 1.000000000000000000 ) ) ;
#196 = ADVANCED_FACE ( 'NONE', ( #373 ), #308, .T. ) ;
#197 = EDGE_CURVE ( 'NONE', #139, #371, #300, .T. ) ;
#198 = EDGE_LOOP ( 'NONE', ( #513, #405, #679, #800 ) ) ;
#199 = DIRECTION ( 'NONE',  ( -0.000000000000000000, 0.000000000000000000, 1.000000000000000000 ) ) ;
#200 = VECTOR ( 'NONE', #499, 1000.000000000000000 ) ;
#201 = CARTESIAN_POINT ( 'NONE',  ( 17.64893573787057690, 1.720039946718901041E-12, 1.000000000000000000 ) ) ;
#202 = ORIENTED_EDGE ( 'NONE', *, *, #634, .F. ) ;
#203 = CARTESIAN_POINT ( 'NONE',  ( -0.1872999745999499310, -3.485006350012999743, 0.000000000000000000 ) ) ;
#204 = LINE ( 'NONE', #611, #244 ) ;
#205 = CIRCLE ( 'NONE', #597, 4.999999999999997335 ) ;
#206 = ORIENTED_EDGE ( 'NONE', *, *, #380, .F. ) ;
#207 = DIRECTION ( 'NONE',  ( -0.000000000000000000, -0.000000000000000000, -1.000000000000000000 ) ) ;
#208 = VECTOR ( 'NONE', #811, 1000.000000000000000 ) ;
#209 = LINE ( 'NONE', #417, #325 ) ;
#210 = ORIENTED_EDGE ( 'NONE', *, *, #584, .T. ) ;
#211 = LINE ( 'NONE', #415, #869 ) ;
#212 = CARTESIAN_POINT ( 'NONE',  ( 73.72446786893550552, 2.436029812688388404E-14, 0.000000000000000000 ) ) ;
#213 = VECTOR ( 'NONE', #242, 1000.000000000000000 ) ;
#214 = DIRECTION ( 'NONE',  ( 1.000000000000000000, 0.000000000000000000, 0.000000000000000000 ) ) ;
#215 = ORIENTED_EDGE ( 'NONE', *, *, #610, .F. ) ;
#216 =( NAMED_UNIT ( * ) SI_UNIT ( $, .STERADIAN. ) SOLID_ANGLE_UNIT ( ) );
#217 = CARTESIAN_POINT ( 'NONE',  ( -51.27553213106449448, -116.9830861061695089, 1.000000000000000000 ) ) ;
#218 = CARTESIAN_POINT ( 'NONE',  ( 0.000000000000000000, -121.9830861061695089, 1.000000000000000000 ) ) ;
#219 = EDGE_CURVE ( 'NONE', #537, #165, #841, .T. ) ;
#220 = ORIENTED_EDGE ( 'NONE', *, *, #848, .T. ) ;
#221 = DIRECTION ( 'NONE',  ( -0.000000000000000000, -0.000000000000000000, -1.000000000000000000 ) ) ;
#222 = EDGE_CURVE ( 'NONE', #583, #143, #74, .T. ) ;
#223 = AXIS2_PLACEMENT_3D ( 'NONE', #126, #52, #397 ) ;
#224 = FACE_OUTER_BOUND ( 'NONE', #813, .T. ) ;
#225 = EDGE_CURVE ( 'NONE', #152, #718, #368, .T. ) ;
#226 = ORIENTED_EDGE ( 'NONE', *, *, #236, .T. ) ;
#227 = CARTESIAN_POINT ( 'NONE',  ( 65.72446786893551973, -53.98308610616951597, 1.000000000000000000 ) ) ;
#228 = DIRECTION ( 'NONE',  ( 0.000000000000000000, 1.000000000000000000, 0.000000000000000000 ) ) ;
#229 = AXIS2_PLACEMENT_3D ( 'NONE', #598, #855, #503 ) ;
#230 = ORIENTED_EDGE ( 'NONE', *, *, #634, .T. ) ;
#231 = DIRECTION ( 'NONE',  ( -0.000000000000000000, 0.000000000000000000, -1.000000000000000000 ) ) ;
#232 = DIRECTION ( 'NONE',  ( 1.652117596168389728E-16, -1.000000000000000000, 0.000000000000000000 ) ) ;
#233 = CARTESIAN_POINT ( 'NONE',  ( -32.27553213106448737, 0.000000000000000000, 1.000000000000000000 ) ) ;
#234 = EDGE_CURVE ( 'NONE', #275, #386, #780, .T. ) ;
#235 = ORIENTED_EDGE ( 'NONE', *, *, #448, .F. ) ;
#236 = EDGE_CURVE ( 'NONE', #376, #849, #517, .T. ) ;
#237 = ORIENTED_EDGE ( 'NONE', *, *, #68, .T. ) ;
#238 = CARTESIAN_POINT ( 'NONE',  ( 7.157312674624999538, -6.247236474473000456, 0.000000000000000000 ) ) ;
#239 = CARTESIAN_POINT ( 'NONE',  ( 65.72446786893551973, -53.98308610616951597, 0.000000000000000000 ) ) ;
#240 = ORIENTED_EDGE ( 'NONE', *, *, #162, .F. ) ;
#241 = ORIENTED_EDGE ( 'NONE', *, *, #582, .T. ) ;
#242 = DIRECTION ( 'NONE',  ( -0.000000000000000000, -0.000000000000000000, -1.000000000000000000 ) ) ;
#243 = ORIENTED_EDGE ( 'NONE', *, *, #701, .F. ) ;
#244 = VECTOR ( 'NONE', #271, 1000.000000000000000 ) ;
#245 = ORIENTED_EDGE ( 'NONE', *, *, #843, .T. ) ;
#246 = CARTESIAN_POINT ( 'NONE',  ( -4.778822870305076270E-15, -61.98308610616950887, 1.000000000000000000 ) ) ;
#247 = CARTESIAN_POINT ( 'NONE',  ( -0.1872999745999499033, 1.215506550571220925E-18, 1.000000000000000000 ) ) ;
#248 = EDGE_LOOP ( 'NONE', ( #401, #113, #645, #492 ) ) ;
#249 = CARTESIAN_POINT ( 'NONE',  ( -0.1872999745999499310, -3.485006350012999743, 1.000000000000000000 ) ) ;
#250 = EDGE_CURVE ( 'NONE', #165, #583, #183, .T. ) ;
#251 = CARTESIAN_POINT ( 'NONE',  ( -48.27553213106450869, 30.01691389383048758, 1.000000000000000000 ) ) ;
#252 = VECTOR ( 'NONE', #232, 1000.000000000000000 ) ;
#253 = CARTESIAN_POINT ( 'NONE',  ( 7.157312674624999538, -6.247236474473000456, 1.000000000000000000 ) ) ;
#254 = DIRECTION ( 'NONE',  ( 1.000000000000000000, 0.000000000000000000, 0.000000000000000000 ) ) ;
#255 = UNCERTAINTY_MEASURE_WITH_UNIT (LENGTH_MEASURE( 1.000000000000000082E-05 ), #437, 'distance_accuracy_value', 'NONE');
#256 = EDGE_LOOP ( 'NONE', ( #795, #429, #617, #436, #692, #338, #652, #573, #66, #86, #130, #237 ) ) ;
#257 = CIRCLE ( 'NONE', #174, 7.999999999999992895 ) ;
#258 = CARTESIAN_POINT ( 'NONE',  ( 13.16162687325399894, -19.67886334772000367, 0.000000000000000000 ) ) ;
#259 = VECTOR ( 'NONE', #735, 1000.000000000000000 ) ;
#260 = LINE ( 'NONE', #602, #512 ) ;
#261 = ORIENTED_EDGE ( 'NONE', *, *, #222, .F. ) ;
#262 = EDGE_CURVE ( 'NONE', #849, #475, #444, .T. ) ;
#263 = CARTESIAN_POINT ( 'NONE',  ( 65.72446786893546289, -61.98308610616951597, 0.000000000000000000 ) ) ;
#264 = DIRECTION ( 'NONE',  ( 0.000000000000000000, -0.000000000000000000, -1.000000000000000000 ) ) ;
#265 = ORIENTED_EDGE ( 'NONE', *, *, #222, .T. ) ;
#266 = VECTOR ( 'NONE', #574, 1000.000000000000000 ) ;
#267 = FACE_OUTER_BOUND ( 'NONE', #674, .T. ) ;
#268 = DIRECTION ( 'NONE',  ( 1.000000000000000000, 0.000000000000000000, 0.000000000000000000 ) ) ;
#269 = ORIENTED_EDGE ( 'NONE', *, *, #262, .T. ) ;
#270 = DIRECTION ( 'NONE',  ( 1.000000000000000000, 0.000000000000000000, 0.000000000000000000 ) ) ;
#271 = DIRECTION ( 'NONE',  ( -0.000000000000000000, -0.000000000000000000, -1.000000000000000000 ) ) ;
#272 = ORIENTED_EDGE ( 'NONE', *, *, #784, .F. ) ;
#273 = LINE ( 'NONE', #144, #56 ) ;
#274 = CARTESIAN_POINT ( 'NONE',  ( -48.27553213106445185, 38.01691389383049113, 1.000000000000000000 ) ) ;
#275 = VERTEX_POINT ( 'NONE', #115 ) ;
#276 = LINE ( 'NONE', #357, #590 ) ;
#277 = ORIENTED_EDGE ( 'NONE', *, *, #485, .T. ) ;
#278 = CARTESIAN_POINT ( 'NONE',  ( -56.27553213106450869, 30.01691389383043429, 1.000000000000000000 ) ) ;
#279 = CYLINDRICAL_SURFACE ( 'NONE', #323, 5.000000000000004441 ) ;
#280 = CARTESIAN_POINT ( 'NONE',  ( 73.72446786893551973, -53.98308610616945913, 0.000000000000000000 ) ) ;
#281 = APPLICATION_CONTEXT ( 'automotive_design' ) ;
#282 = EDGE_CURVE ( 'NONE', #775, #63, #382, .T. ) ;
#283 = ORIENTED_EDGE ( 'NONE', *, *, #13, .T. ) ;
#284 = VECTOR ( 'NONE', #362, 1000.000000000000000 ) ;
#285 = CYLINDRICAL_SURFACE ( 'NONE', #640, 4.999999999999997335 ) ;
#286 = ADVANCED_FACE ( 'NONE', ( #167, #443 ), #179, .F. ) ;
#287 = ADVANCED_FACE ( 'NONE', ( #319 ), #440, .F. ) ;
#288 = DIRECTION ( 'NONE',  ( -0.000000000000000000, 0.000000000000000000, 1.000000000000000000 ) ) ;
#289 = VECTOR ( 'NONE', #347, 1000.000000000000000 ) ;
#290 = VERTEX_POINT ( 'NONE', #534 ) ;
#291 = PLANE ( 'NONE',  #657 ) ;
#292 = VECTOR ( 'NONE', #138, 1000.000000000000000 ) ;
#293 = DIRECTION ( 'NONE',  ( 0.000000000000000000, 1.000000000000000000, 0.000000000000000000 ) ) ;
#294 =( GEOMETRIC_REPRESENTATION_CONTEXT ( 3 ) GLOBAL_UNCERTAINTY_ASSIGNED_CONTEXT ( ( #255 ) ) GLOBAL_UNIT_ASSIGNED_CONTEXT ( ( #437, #331, #48 ) ) REPRESENTATION_CONTEXT ( 'NONE', 'WORKASPACE' ) );
#295 = DIRECTION ( 'NONE',  ( -0.000000000000000000, 0.000000000000000000, 1.000000000000000000 ) ) ;
#296 = ORIENTED_EDGE ( 'NONE', *, *, #723, .T. ) ;
#297 = APPLICATION_PROTOCOL_DEFINITION ( 'draft international standard', 'automotive_design', 1998, #281 ) ;
#298 = DIRECTION ( 'NONE',  ( -1.000000000000000000, 7.709882115452485562E-17, 0.000000000000000000 ) ) ;
#299 = CARTESIAN_POINT ( 'NONE',  ( -48.27553213106445185, 38.01691389383049113, 1.000000000000000000 ) ) ;
#300 = CIRCLE ( 'NONE', #402, 4.487308864618746895 ) ;
#301 = ORIENTED_EDGE ( 'NONE', *, *, #385, .T. ) ;
#302 = DIRECTION ( 'NONE',  ( -1.000000000000000000, 0.000000000000000000, 0.000000000000000000 ) ) ;
#303 = FACE_OUTER_BOUND ( 'NONE', #311, .T. ) ;
#304 = LINE ( 'NONE', #454, #374 ) ;
#305 = AXIS2_PLACEMENT_3D ( 'NONE', #669, #394, #864 ) ;
#306 = ORIENTED_EDGE ( 'NONE', *, *, #41, .F. ) ;
#307 = ORIENTED_EDGE ( 'NONE', *, *, #762, .T. ) ;
#308 = PLANE ( 'NONE',  #528 ) ;
#309 = STYLED_ITEM ( 'NONE', ( #345 ), #751 ) ;
#310 = VERTEX_POINT ( 'NONE', #733 ) ;
#311 = EDGE_LOOP ( 'NONE', ( #82, #104, #714, #21 ) ) ;
#312 = DIRECTION ( 'NONE',  ( 1.000000000000000000, 1.652117596168389728E-16, -0.000000000000000000 ) ) ;
#313 = CARTESIAN_POINT ( 'NONE',  ( 8.674318008635999888, -19.67886334772000367, 0.000000000000000000 ) ) ;
#314 = EDGE_CURVE ( 'NONE', #290, #341, #799, .T. ) ;
#315 = EDGE_CURVE ( 'NONE', #170, #168, #204, .T. ) ;
#316 = VECTOR ( 'NONE', #774, 1000.000000000000000 ) ;
#317 = CARTESIAN_POINT ( 'NONE',  ( 3.485006350013000187, -16.01503175006000035, 1.000000000000000000 ) ) ;
#318 = EDGE_CURVE ( 'NONE', #734, #310, #260, .T. ) ;
#319 = FACE_OUTER_BOUND ( 'NONE', #198, .T. ) ;
#320 = ADVANCED_FACE ( 'NONE', ( #544 ), #142, .T. ) ;
#321 = ORIENTED_EDGE ( 'NONE', *, *, #112, .F. ) ;
#322 = LINE ( 'NONE', #596, #411 ) ;
#323 = AXIS2_PLACEMENT_3D ( 'NONE', #217, #44, #118 ) ;
#324 = DIRECTION ( 'NONE',  ( 1.000000000000000000, 0.000000000000000000, 0.000000000000000000 ) ) ;
#325 = VECTOR ( 'NONE', #84, 1000.000000000000000 ) ;
#326 = PRESENTATION_LAYER_ASSIGNMENT (  '', '', ( #309 ) ) ;
#327 = ORIENTED_EDGE ( 'NONE', *, *, #98, .T. ) ;
#328 = CARTESIAN_POINT ( 'NONE',  ( 8.674318008635999888, -11.77149860299000217, 0.000000000000000000 ) ) ;
#329 = EDGE_CURVE ( 'NONE', #114, #143, #2, .T. ) ;
#330 = LINE ( 'NONE', #195, #289 ) ;
#331 =( NAMED_UNIT ( * ) PLANE_ANGLE_UNIT ( ) SI_UNIT ( $, .RADIAN. ) );
#332 = EDGE_CURVE ( 'NONE', #193, #310, #132, .T. ) ;
#333 = VERTEX_POINT ( 'NONE', #404 ) ;
#334 = LINE ( 'NONE', #406, #259 ) ;
#335 = AXIS2_PLACEMENT_3D ( 'NONE', #258, #676, #472 ) ;
#336 = DIRECTION ( 'NONE',  ( 0.000000000000000000, -1.000000000000000000, 0.000000000000000000 ) ) ;
#337 = VECTOR ( 'NONE', #95, 1000.000000000000000 ) ;
#338 = ORIENTED_EDGE ( 'NONE', *, *, #135, .F. ) ;
#339 = CARTESIAN_POINT ( 'NONE',  ( 7.157312674624999538, 0.000000000000000000, 1.000000000000000000 ) ) ;
#340 = CARTESIAN_POINT ( 'NONE',  ( 8.674318008636005217, -6.247236474473000456, 1.000000000000000000 ) ) ;
#341 = VERTEX_POINT ( 'NONE', #868 ) ;
#342 = CARTESIAN_POINT ( 'NONE',  ( -32.27553213106448737, -69.98308610616957992, 1.000000000000000000 ) ) ;
#343 = LINE ( 'NONE', #539, #851 ) ;
#344 = EDGE_LOOP ( 'NONE', ( #296, #753, #5, #722 ) ) ;
#345 = PRESENTATION_STYLE_ASSIGNMENT (( #569 ) ) ;
#346 = AXIS2_PLACEMENT_3D ( 'NONE', #750, #288, #159 ) ;
#347 = DIRECTION ( 'NONE',  ( -9.745856476932423027E-14, 1.000000000000000000, 0.000000000000000000 ) ) ;
#348 = ORIENTED_EDGE ( 'NONE', *, *, #701, .T. ) ;
#349 = AXIS2_PLACEMENT_3D ( 'NONE', #747, #190, #270 ) ;
#350 = CARTESIAN_POINT ( 'NONE',  ( 7.157312674624878746, -11.77149860299000217, 1.000000000000000000 ) ) ;
#351 = DIRECTION ( 'NONE',  ( 1.000000000000000000, 0.000000000000000000, 0.000000000000000000 ) ) ;
#352 = ORIENTED_EDGE ( 'NONE', *, *, #387, .F. ) ;
#353 = CARTESIAN_POINT ( 'NONE',  ( -24.27553213106448737, -69.98308610616950887, 0.000000000000000000 ) ) ;
#354 = PRODUCT_RELATED_PRODUCT_CATEGORY ( 'part', '', ( #9 ) ) ;
#355 = LINE ( 'NONE', #212, #786 ) ;
#356 = EDGE_CURVE ( 'NONE', #613, #152, #361, .T. ) ;
#357 = CARTESIAN_POINT ( 'NONE',  ( 65.72446786893544868, 38.01691389383049113, 1.000000000000000000 ) ) ;
#358 = EDGE_LOOP ( 'NONE', ( #460, #870, #210, #700 ) ) ;
#359 = EDGE_CURVE ( 'NONE', #371, #376, #330, .T. ) ;
#360 = CARTESIAN_POINT ( 'NONE',  ( 3.485006350013000187, -3.485006350013000187, 0.000000000000000000 ) ) ;
#361 = CIRCLE ( 'NONE', #90, 3.672306324612949702 ) ;
#362 = DIRECTION ( 'NONE',  ( -0.000000000000000000, -0.000000000000000000, -1.000000000000000000 ) ) ;
#363 = VERTEX_POINT ( 'NONE', #253 ) ;
#364 = DIRECTION ( 'NONE',  ( -1.000000000000000000, 0.000000000000000000, 0.000000000000000000 ) ) ;
#365 = CARTESIAN_POINT ( 'NONE',  ( -0.1872999745999500143, -16.01503175006000035, 1.000000000000000000 ) ) ;
#366 = VERTEX_POINT ( 'NONE', #468 ) ;
#367 = CARTESIAN_POINT ( 'NONE',  ( 8.674318008636026534, -4.300008890017999796, 0.000000000000000000 ) ) ;
#368 = LINE ( 'NONE', #247, #703 ) ;
#369 = ORIENTED_EDGE ( 'NONE', *, *, #171, .T. ) ;
#370 = CARTESIAN_POINT ( 'NONE',  ( 73.72446786893549131, 30.01691389383043429, 1.000000000000000000 ) ) ;
#371 = VERTEX_POINT ( 'NONE', #65 ) ;
#372 = CARTESIAN_POINT ( 'NONE',  ( -56.27553213106450158, -9.297379686747126218E-15, 0.000000000000000000 ) ) ;
#373 = FACE_OUTER_BOUND ( 'NONE', #695, .T. ) ;
#374 = VECTOR ( 'NONE', #712, 1000.000000000000000 ) ;
#375 = VERTEX_POINT ( 'NONE', #340 ) ;
#376 = VERTEX_POINT ( 'NONE', #191 ) ;
#377 = CARTESIAN_POINT ( 'NONE',  ( 17.64893573787249537, -19.67886334772000367, 1.000000000000000000 ) ) ;
#378 = ORIENTED_EDGE ( 'NONE', *, *, #359, .T. ) ;
#379 = ORIENTED_EDGE ( 'NONE', *, *, #727, .F. ) ;
#380 = EDGE_CURVE ( 'NONE', #603, #184, #343, .T. ) ;
#381 = CARTESIAN_POINT ( 'NONE',  ( -24.27553213106443408, -61.98308610616950887, 1.000000000000000000 ) ) ;
#382 = LINE ( 'NONE', #172, #830 ) ;
#383 = ADVANCED_FACE ( 'NONE', ( #464 ), #57, .T. ) ;
#384 = ORIENTED_EDGE ( 'NONE', *, *, #332, .F. ) ;
#385 = EDGE_CURVE ( 'NONE', #718, #123, #824, .T. ) ;
#386 = VERTEX_POINT ( 'NONE', #187 ) ;
#387 = EDGE_CURVE ( 'NONE', #341, #537, #521, .T. ) ;
#388 = FACE_OUTER_BOUND ( 'NONE', #529, .T. ) ;
#389 = DIRECTION ( 'NONE',  ( 1.000000000000000000, 0.000000000000000000, 0.000000000000000000 ) ) ;
#390 = DIRECTION ( 'NONE',  ( -0.000000000000000000, -0.000000000000000000, -1.000000000000000000 ) ) ;
#391 = CYLINDRICAL_SURFACE ( 'NONE', #305, 4.487308864617485682 ) ;
#392 = CARTESIAN_POINT ( 'NONE',  ( -51.27553213106449448, -116.9830861061695089, 0.000000000000000000 ) ) ;
#393 = VERTEX_POINT ( 'NONE', #477 ) ;
#394 = DIRECTION ( 'NONE',  ( -0.000000000000000000, -0.000000000000000000, -1.000000000000000000 ) ) ;
#395 = DIRECTION ( 'NONE',  ( 1.000000000000000000, 0.000000000000000000, 0.000000000000000000 ) ) ;
#396 = EDGE_CURVE ( 'NONE', #475, #25, #400, .T. ) ;
#397 = DIRECTION ( 'NONE',  ( -2.071283041399217601E-13, -1.000000000000000000, 0.000000000000000000 ) ) ;
#398 = ORIENTED_EDGE ( 'NONE', *, *, #314, .F. ) ;
#399 = FACE_OUTER_BOUND ( 'NONE', #358, .T. ) ;
#400 = LINE ( 'NONE', #671, #292 ) ;
#401 = ORIENTED_EDGE ( 'NONE', *, *, #470, .F. ) ;
#402 = AXIS2_PLACEMENT_3D ( 'NONE', #522, #716, #589 ) ;
#403 = DIRECTION ( 'NONE',  ( -9.745856476932423027E-14, 1.000000000000000000, 0.000000000000000000 ) ) ;
#404 = CARTESIAN_POINT ( 'NONE',  ( -32.27553213106448737, -116.9830861061694804, 0.000000000000000000 ) ) ;
#405 = ORIENTED_EDGE ( 'NONE', *, *, #631, .F. ) ;
#406 = CARTESIAN_POINT ( 'NONE',  ( 8.674318008635999888, -19.67886334772000367, 1.000000000000000000 ) ) ;
#407 = LINE ( 'NONE', #748, #453 ) ;
#408 = VECTOR ( 'NONE', #588, 1000.000000000000000 ) ;
#409 = EDGE_CURVE ( 'NONE', #386, #168, #407, .T. ) ;
#410 = VERTEX_POINT ( 'NONE', #666 ) ;
#411 = VECTOR ( 'NONE', #364, 1000.000000000000000 ) ;
#412 = EDGE_CURVE ( 'NONE', #123, #63, #62, .T. ) ;
#413 = DIRECTION ( 'NONE',  ( -0.000000000000000000, -0.000000000000000000, -1.000000000000000000 ) ) ;
#414 = ORIENTED_EDGE ( 'NONE', *, *, #482, .T. ) ;
#415 = CARTESIAN_POINT ( 'NONE',  ( -0.1872999745999499033, 1.215506550571220925E-18, 0.000000000000000000 ) ) ;
#416 = AXIS2_PLACEMENT_3D ( 'NONE', #392, #659, #324 ) ;
#417 = CARTESIAN_POINT ( 'NONE',  ( -32.27553213106448737, 0.000000000000000000, 0.000000000000000000 ) ) ;
#418 = DIRECTION ( 'NONE',  ( -0.000000000000000000, -0.000000000000000000, -1.000000000000000000 ) ) ;
#419 = ORIENTED_EDGE ( 'NONE', *, *, #318, .T. ) ;
#420 = CARTESIAN_POINT ( 'NONE',  ( 65.72446786893546289, -61.98308610616951597, 1.000000000000000000 ) ) ;
#421 = EDGE_CURVE ( 'NONE', #136, #475, #865, .T. ) ;
#422 = CARTESIAN_POINT ( 'NONE',  ( 73.72446786893550552, 2.436029812688388404E-14, 1.000000000000000000 ) ) ;
#423 = CARTESIAN_POINT ( 'NONE',  ( 8.674318008636026534, -4.300008890017999796, 1.000000000000000000 ) ) ;
#424 = EDGE_CURVE ( 'NONE', #463, #442, #12, .T. ) ;
#425 = ORIENTED_EDGE ( 'NONE', *, *, #670, .F. ) ;
#426 = DIRECTION ( 'NONE',  ( -0.000000000000000000, -0.000000000000000000, -1.000000000000000000 ) ) ;
#427 = VECTOR ( 'NONE', #693, 1000.000000000000000 ) ;
#428 = LINE ( 'NONE', #299, #284 ) ;
#429 = ORIENTED_EDGE ( 'NONE', *, *, #387, .T. ) ;
#430 = FACE_OUTER_BOUND ( 'NONE', #620, .T. ) ;
#431 = LINE ( 'NONE', #365, #575 ) ;
#432 = VERTEX_POINT ( 'NONE', #94 ) ;
#433 = CARTESIAN_POINT ( 'NONE',  ( 0.000000000000000000, 38.01691389383049113, 1.000000000000000000 ) ) ;
#434 = FACE_OUTER_BOUND ( 'NONE', #256, .T. ) ;
#435 = AXIS2_PLACEMENT_3D ( 'NONE', #246, #516, #298 ) ;
#436 = ORIENTED_EDGE ( 'NONE', *, *, #81, .T. ) ;
#437 =( LENGTH_UNIT ( ) NAMED_UNIT ( * ) SI_UNIT ( .MILLI., .METRE. ) );
#438 = CARTESIAN_POINT ( 'NONE',  ( -56.27553213106450158, -9.297379686747126218E-15, 1.000000000000000000 ) ) ;
#439 = AXIS2_PLACEMENT_3D ( 'NONE', #768, #852, #254 ) ;
#440 = CYLINDRICAL_SURFACE ( 'NONE', #752, 4.487308864618746895 ) ;
#441 = ORIENTED_EDGE ( 'NONE', *, *, #81, .F. ) ;
#442 = VERTEX_POINT ( 'NONE', #559 ) ;
#443 = FACE_OUTER_BOUND ( 'NONE', #504, .T. ) ;
#444 = CIRCLE ( 'NONE', #146, 4.487308864617483906 ) ;
#445 = ORIENTED_EDGE ( 'NONE', *, *, #789, .T. ) ;
#446 = ADVANCED_FACE ( 'NONE', ( #430 ), #622, .F. ) ;
#447 = ORIENTED_EDGE ( 'NONE', *, *, #234, .T. ) ;
#448 = EDGE_CURVE ( 'NONE', #39, #143, #355, .T. ) ;
#449 = CYLINDRICAL_SURFACE ( 'NONE', #229, 3.672306324612950146 ) ;
#450 = ORIENTED_EDGE ( 'NONE', *, *, #315, .T. ) ;
#451 = EDGE_CURVE ( 'NONE', #734, #366, #18, .T. ) ;
#452 = LINE ( 'NONE', #710, #408 ) ;
#453 = VECTOR ( 'NONE', #395, 1000.000000000000000 ) ;
#454 = CARTESIAN_POINT ( 'NONE',  ( -0.000000000000000000, 38.01691389383049113, 0.000000000000000000 ) ) ;
#455 = AXIS2_PLACEMENT_3D ( 'NONE', #251, #390, #302 ) ;
#456 = CARTESIAN_POINT ( 'NONE',  ( 17.64893573787099967, -4.300008890018001573, 0.000000000000000000 ) ) ;
#457 = EDGE_LOOP ( 'NONE', ( #445, #515, #352, #348 ) ) ;
#458 = CARTESIAN_POINT ( 'NONE',  ( 7.157312674624999538, 0.000000000000000000, 0.000000000000000000 ) ) ;
#459 = CARTESIAN_POINT ( 'NONE',  ( 13.16162687325399894, -19.67886334772000367, 1.000000000000000000 ) ) ;
#460 = ORIENTED_EDGE ( 'NONE', *, *, #262, .F. ) ;
#461 = CARTESIAN_POINT ( 'NONE',  ( 7.157312674624999538, -3.485006350013000187, 1.000000000000000000 ) ) ;
#462 = DIRECTION ( 'NONE',  ( 1.000000000000000000, 0.000000000000000000, 0.000000000000000000 ) ) ;
#463 = VERTEX_POINT ( 'NONE', #274 ) ;
#464 = FACE_OUTER_BOUND ( 'NONE', #466, .T. ) ;
#465 = COLOUR_RGB ( '',0.7921568627450980005, 0.8196078431372548767, 0.9333333333333333481 ) ;
#466 = EDGE_LOOP ( 'NONE', ( #684, #240, #378, #226 ) ) ;
#467 = LINE ( 'NONE', #131, #806 ) ;
#468 = CARTESIAN_POINT ( 'NONE',  ( -56.27553213106448737, -116.9830861061694804, 1.000000000000000000 ) ) ;
#469 = ORIENTED_EDGE ( 'NONE', *, *, #610, .T. ) ;
#470 = EDGE_CURVE ( 'NONE', #664, #713, #97, .T. ) ;
#471 = AXIS2_PLACEMENT_3D ( 'NONE', #736, #413, #677 ) ;
#472 = DIRECTION ( 'NONE',  ( 1.000000000000000000, 0.000000000000000000, 0.000000000000000000 ) ) ;
#473 = DIRECTION ( 'NONE',  ( 0.000000000000000000, 1.000000000000000000, -0.000000000000000000 ) ) ;
#474 = EDGE_CURVE ( 'NONE', #168, #333, #205, .T. ) ;
#475 = VERTEX_POINT ( 'NONE', #367 ) ;
#476 = CARTESIAN_POINT ( 'NONE',  ( 17.64893573787249537, -19.67886334772000367, 0.000000000000000000 ) ) ;
#477 = CARTESIAN_POINT ( 'NONE',  ( 7.157312674624878746, -11.77149860299000217, 0.000000000000000000 ) ) ;
#478 = VECTOR ( 'NONE', #490, 1000.000000000000000 ) ;
#479 = ORIENTED_EDGE ( 'NONE', *, *, #225, .F. ) ;
#480 = CARTESIAN_POINT ( 'NONE',  ( 0.000000000000000000, -6.247236474473000456, 0.000000000000000000 ) ) ;
#481 = DIRECTION ( 'NONE',  ( 3.304235192336779456E-16, -1.000000000000000000, 0.000000000000000000 ) ) ;
#482 = EDGE_CURVE ( 'NONE', #42, #114, #8, .T. ) ;
#483 = ORIENTED_EDGE ( 'NONE', *, *, #762, .F. ) ;
#484 = AXIS2_PLACEMENT_3D ( 'NONE', #642, #295, #214 ) ;
#485 = EDGE_CURVE ( 'NONE', #333, #579, #209, .T. ) ;
#486 = VECTOR ( 'NONE', #186, 1000.000000000000000 ) ;
#487 = DIRECTION ( 'NONE',  ( 1.000000000000000000, 2.125036258071590584E-14, 0.000000000000000000 ) ) ;
#488 = EDGE_LOOP ( 'NONE', ( #269, #53, #483, #638, #156, #506, #810, #562, #91, #10, #655, #518 ) ) ;
#489 = DIRECTION ( 'NONE',  ( -0.000000000000000000, -0.000000000000000000, -1.000000000000000000 ) ) ;
#490 = DIRECTION ( 'NONE',  ( -0.000000000000000000, -0.000000000000000000, -1.000000000000000000 ) ) ;
#491 = DIRECTION ( 'NONE',  ( 1.000000000000000000, 0.000000000000000000, 0.000000000000000000 ) ) ;
#492 = ORIENTED_EDGE ( 'NONE', *, *, #541, .T. ) ;
#493 = CARTESIAN_POINT ( 'NONE',  ( -4.778822870305076270E-15, -61.98308610616950887, 1.000000000000000000 ) ) ;
#494 = VECTOR ( 'NONE', #685, 1000.000000000000000 ) ;
#495 = DIRECTION ( 'NONE',  ( 1.000000000000000000, -1.026663050664789577E-14, 0.000000000000000000 ) ) ;
#496 = ORIENTED_EDGE ( 'NONE', *, *, #409, .T. ) ;
#497 = LINE ( 'NONE', #493, #709 ) ;
#498 = ADVANCED_FACE ( 'NONE', ( #689 ), #279, .T. ) ;
#499 = DIRECTION ( 'NONE',  ( -0.000000000000000000, -0.000000000000000000, -1.000000000000000000 ) ) ;
#500 = ORIENTED_EDGE ( 'NONE', *, *, #13, .F. ) ;
#501 = LINE ( 'NONE', #370, #154 ) ;
#502 = DIRECTION ( 'NONE',  ( -0.000000000000000000, -0.000000000000000000, -1.000000000000000000 ) ) ;
#503 = DIRECTION ( 'NONE',  ( -1.000000000000000000, 0.000000000000000000, 0.000000000000000000 ) ) ;
#504 = EDGE_LOOP ( 'NONE', ( #189, #708, #532, #668, #182, #384, #509, #106, #834, #261, #75, #116 ) ) ;
#505 = CARTESIAN_POINT ( 'NONE',  ( 8.674318008636069166, -8.905601789182829901E-14, 1.000000000000000000 ) ) ;
#506 = ORIENTED_EDGE ( 'NONE', *, *, #784, .T. ) ;
#507 = CARTESIAN_POINT ( 'NONE',  ( -32.27553213106448737, -69.98308610616957992, 0.000000000000000000 ) ) ;
#508 = DIRECTION ( 'NONE',  ( -6.489624748574557211E-18, -1.000000000000000000, 0.000000000000000000 ) ) ;
#509 = ORIENTED_EDGE ( 'NONE', *, *, #158, .T. ) ;
#510 = LINE ( 'NONE', #458, #639 ) ;
#511 = FACE_OUTER_BOUND ( 'NONE', #248, .T. ) ;
#512 = VECTOR ( 'NONE', #686, 1000.000000000000000 ) ;
#513 = ORIENTED_EDGE ( 'NONE', *, *, #607, .F. ) ;
#514 = AXIS2_PLACEMENT_3D ( 'NONE', #128, #867, #60 ) ;
#515 = ORIENTED_EDGE ( 'NONE', *, *, #219, .F. ) ;
#516 = DIRECTION ( 'NONE',  ( 7.709882115452485562E-17, 1.000000000000000000, -0.000000000000000000 ) ) ;
#517 = LINE ( 'NONE', #778, #715 ) ;
#518 = ORIENTED_EDGE ( 'NONE', *, *, #697, .T. ) ;
#519 = AXIS2_PLACEMENT_3D ( 'NONE', #538, #199, #807 ) ;
#520 = LINE ( 'NONE', #372, #252 ) ;
#521 = CIRCLE ( 'NONE', #54, 7.999999999999996447 ) ;
#522 = CARTESIAN_POINT ( 'NONE',  ( 13.16162687325399894, -19.67886334772000367, 1.000000000000000000 ) ) ;
#523 = PRODUCT_DEFINITION_FORMATION_WITH_SPECIFIED_SOURCE ( 'ไป', '', #9, .NOT_KNOWN. ) ;
#524 = CYLINDRICAL_SURFACE ( 'NONE', #455, 8.000000000000000000 ) ;
#525 = ORIENTED_EDGE ( 'NONE', *, *, #605, .F. ) ;
#526 = FACE_OUTER_BOUND ( 'NONE', #344, .T. ) ;
#527 = DIRECTION ( 'NONE',  ( 1.000000000000000000, 0.000000000000000000, 0.000000000000000000 ) ) ;
#528 = AXIS2_PLACEMENT_3D ( 'NONE', #838, #177, #593 ) ;
#529 = EDGE_LOOP ( 'NONE', ( #632, #756, #301, #29 ) ) ;
#530 = CARTESIAN_POINT ( 'NONE',  ( 0.000000000000000000, -11.77149860299000217, 1.000000000000000000 ) ) ;
#531 = CARTESIAN_POINT ( 'NONE',  ( 3.485006350013000187, -3.485006350013000187, 1.000000000000000000 ) ) ;
#532 = ORIENTED_EDGE ( 'NONE', *, *, #409, .F. ) ;
#533 = DIRECTION ( 'NONE',  ( 0.000000000000000000, -0.000000000000000000, -1.000000000000000000 ) ) ;
#534 = CARTESIAN_POINT ( 'NONE',  ( -32.27553213106448737, -116.9830861061694804, 1.000000000000000000 ) ) ;
#535 = EDGE_CURVE ( 'NONE', #577, #664, #510, .T. ) ;
#536 = AXIS2_PLACEMENT_3D ( 'NONE', #163, #578, #231 ) ;
#537 = VERTEX_POINT ( 'NONE', #381 ) ;
#538 = CARTESIAN_POINT ( 'NONE',  ( -48.27553213106450869, 30.01691389383048758, 1.000000000000000000 ) ) ;
#539 = CARTESIAN_POINT ( 'NONE',  ( 8.674318008635999888, 0.000000000000000000, 0.000000000000000000 ) ) ;
#540 = ADVANCED_FACE ( 'NONE', ( #656 ), #30, .F. ) ;
#541 = EDGE_CURVE ( 'NONE', #152, #713, #452, .T. ) ;
#542 = ORIENTED_EDGE ( 'NONE', *, *, #135, .T. ) ;
#543 = CARTESIAN_POINT ( 'NONE',  ( 13.16162687325399894, -4.300008890018000685, 1.000000000000000000 ) ) ;
#544 = FACE_OUTER_BOUND ( 'NONE', #551, .T. ) ;
#545 = ORIENTED_EDGE ( 'NONE', *, *, #761, .T. ) ;
#546 = SURFACE_SIDE_STYLE ('',( #557 ) ) ;
#547 = DIRECTION ( 'NONE',  ( 1.000000000000000000, 0.000000000000000000, 0.000000000000000000 ) ) ;
#548 = AXIS2_PLACEMENT_3D ( 'NONE', #317, #502, #729 ) ;
#549 = ADVANCED_FACE ( 'NONE', ( #303 ), #844, .F. ) ;
#550 = AXIS2_PLACEMENT_3D ( 'NONE', #438, #312, #832 ) ;
#551 = EDGE_LOOP ( 'NONE', ( #425, #321, #542, #687 ) ) ;
#552 = EDGE_CURVE ( 'NONE', #310, #567, #520, .T. ) ;
#553 =( NAMED_UNIT ( * ) PLANE_ANGLE_UNIT ( ) SI_UNIT ( $, .RADIAN. ) );
#554 = DIRECTION ( 'NONE',  ( 0.000000000000000000, -0.000000000000000000, 1.000000000000000000 ) ) ;
#555 = FACE_OUTER_BOUND ( 'NONE', #749, .T. ) ;
#556 = ORIENTED_EDGE ( 'NONE', *, *, #737, .T. ) ;
#557 = SURFACE_STYLE_FILL_AREA ( #618 ) ;
#558 = AXIS2_PLACEMENT_3D ( 'NONE', #233, #24, #769 ) ;
#559 = CARTESIAN_POINT ( 'NONE',  ( 65.72446786893544868, 38.01691389383049113, 1.000000000000000000 ) ) ;
#560 = PLANE ( 'NONE',  #558 ) ;
#561 = CLOSED_SHELL ( 'NONE', ( #77, #787, #549, #796, #196, #320, #43, #871, #540, #498, #4, #650, #383, #287, #819, #660, #856, #571, #816, #192, #673, #446, #3, #808, #134, #286 ) ) ;
#562 = ORIENTED_EDGE ( 'NONE', *, *, #727, .T. ) ;
#563 = CARTESIAN_POINT ( 'NONE',  ( 7.157312674627316795, -1.482482036494723852E-12, 0.000000000000000000 ) ) ;
#564 = DIRECTION ( 'NONE',  ( -0.000000000000000000, 0.000000000000000000, 1.000000000000000000 ) ) ;
#565 = CARTESIAN_POINT ( 'NONE',  ( 8.674318008636005217, -6.247236474473000456, 0.000000000000000000 ) ) ;
#566 = PRODUCT_DEFINITION ( 'ๆ', '', #523, #591 ) ;
#567 = VERTEX_POINT ( 'NONE', #646 ) ;
#568 = VECTOR ( 'NONE', #739, 1000.000000000000000 ) ;
#569 = SURFACE_STYLE_USAGE ( .BOTH. , #546 ) ;
#570 = CARTESIAN_POINT ( 'NONE',  ( 7.157312674624999538, -3.485006350013000187, 1.000000000000000000 ) ) ;
#571 = ADVANCED_FACE ( 'NONE', ( #388 ), #46, .F. ) ;
#572 = EDGE_CURVE ( 'NONE', #775, #603, #641, .T. ) ;
#573 = ORIENTED_EDGE ( 'NONE', *, *, #711, .T. ) ;
#574 = DIRECTION ( 'NONE',  ( -1.026663050664789577E-14, -1.000000000000000000, 0.000000000000000000 ) ) ;
#575 = VECTOR ( 'NONE', #418, 1000.000000000000000 ) ;
#576 = DIRECTION ( 'NONE',  ( 1.026663050664789577E-14, 1.000000000000000000, 0.000000000000000000 ) ) ;
#577 = VERTEX_POINT ( 'NONE', #238 ) ;
#578 = DIRECTION ( 'NONE',  ( 1.000000000000000000, 0.000000000000000000, -0.000000000000000000 ) ) ;
#579 = VERTEX_POINT ( 'NONE', #507 ) ;
#580 = CIRCLE ( 'NONE', #349, 3.672306324611238182 ) ;
#581 = DIRECTION ( 'NONE',  ( -0.000000000000000000, -0.000000000000000000, -1.000000000000000000 ) ) ;
#582 = EDGE_CURVE ( 'NONE', #363, #375, #777, .T. ) ;
#583 = VERTEX_POINT ( 'NONE', #263 ) ;
#584 = EDGE_CURVE ( 'NONE', #376, #136, #180, .T. ) ;
#585 = CARTESIAN_POINT ( 'NONE',  ( -4.778822870305076270E-15, -61.98308610616950887, 0.000000000000000000 ) ) ;
#586 = ORIENTED_EDGE ( 'NONE', *, *, #848, .F. ) ;
#587 = VERTEX_POINT ( 'NONE', #476 ) ;
#588 = DIRECTION ( 'NONE',  ( -0.000000000000000000, -0.000000000000000000, -1.000000000000000000 ) ) ;
#589 = DIRECTION ( 'NONE',  ( 1.000000000000000000, 0.000000000000000000, 0.000000000000000000 ) ) ;
#590 = VECTOR ( 'NONE', #151, 1000.000000000000000 ) ;
#591 = PRODUCT_DEFINITION_CONTEXT ( 'detailed design', #79, 'design' ) ;
#592 = ORIENTED_EDGE ( 'NONE', *, *, #535, .F. ) ;
#593 = DIRECTION ( 'NONE',  ( -3.304235192336779456E-16, 1.000000000000000000, 0.000000000000000000 ) ) ;
#594 = APPLICATION_PROTOCOL_DEFINITION ( 'draft international standard', 'automotive_design', 1998, #79 ) ;
#595 = ORIENTED_EDGE ( 'NONE', *, *, #315, .F. ) ;
#596 = CARTESIAN_POINT ( 'NONE',  ( -0.000000000000000000, -11.77149860299000217, 0.000000000000000000 ) ) ;
#597 = AXIS2_PLACEMENT_3D ( 'NONE', #27, #564, #99 ) ;
#598 = CARTESIAN_POINT ( 'NONE',  ( 3.485006350013000187, -3.485006350013000187, 1.000000000000000000 ) ) ;
#599 = VECTOR ( 'NONE', #11, 1000.000000000000000 ) ;
#600 = ORIENTED_EDGE ( 'NONE', *, *, #282, .T. ) ;
#601 = PLANE ( 'NONE',  #691 ) ;
#602 = CARTESIAN_POINT ( 'NONE',  ( -56.27553213106450869, 30.01691389383043429, 1.000000000000000000 ) ) ;
#603 = VERTEX_POINT ( 'NONE', #328 ) ;
#604 = PLANE ( 'NONE',  #6 ) ;
#605 = EDGE_CURVE ( 'NONE', #363, #613, #1, .T. ) ;
#606 = DIRECTION ( 'NONE',  ( 2.071283041399217601E-13, 1.000000000000000000, 0.000000000000000000 ) ) ;
#607 = EDGE_CURVE ( 'NONE', #184, #587, #109, .T. ) ;
#608 = ORIENTED_EDGE ( 'NONE', *, *, #359, .F. ) ;
#609 = DIRECTION ( 'NONE',  ( 0.000000000000000000, -1.000000000000000000, 0.000000000000000000 ) ) ;
#610 = EDGE_CURVE ( 'NONE', #290, #333, #793, .T. ) ;
#611 = CARTESIAN_POINT ( 'NONE',  ( -37.27553213106452290, -121.9830861061695089, 1.000000000000000000 ) ) ;
#612 = VECTOR ( 'NONE', #58, 1000.000000000000000 ) ;
#613 = VERTEX_POINT ( 'NONE', #461 ) ;
#614 = DIRECTION ( 'NONE',  ( -0.000000000000000000, -0.000000000000000000, -1.000000000000000000 ) ) ;
#615 = DIRECTION ( 'NONE',  ( -0.000000000000000000, -0.000000000000000000, -1.000000000000000000 ) ) ;
#616 = VECTOR ( 'NONE', #491, 1000.000000000000000 ) ;
#617 = ORIENTED_EDGE ( 'NONE', *, *, #725, .T. ) ;
#618 = FILL_AREA_STYLE ('',( #140 ) ) ;
#619 = DIRECTION ( 'NONE',  ( -1.000000000000000000, -9.745856476932424289E-14, 0.000000000000000000 ) ) ;
#620 = EDGE_LOOP ( 'NONE', ( #307, #202, #627, #220 ) ) ;
#621 = PRODUCT_DEFINITION_SHAPE ( 'NONE', 'NONE',  #566 ) ;
#622 = PLANE ( 'NONE',  #141 ) ;
#623 = CARTESIAN_POINT ( 'NONE',  ( 65.72446786893550552, 30.01691389383048758, 1.000000000000000000 ) ) ;
#624 = EDGE_LOOP ( 'NONE', ( #738, #767, #863, #175 ) ) ;
#625 = DIRECTION ( 'NONE',  ( 1.000000000000000000, 0.000000000000000000, 0.000000000000000000 ) ) ;
#626 = CARTESIAN_POINT ( 'NONE',  ( 0.000000000000000000, 38.01691389383049113, 1.000000000000000000 ) ) ;
#627 = ORIENTED_EDGE ( 'NONE', *, *, #582, .F. ) ;
#628 = CARTESIAN_POINT ( 'NONE',  ( 8.674318008635999888, -11.77149860299000217, 1.000000000000000000 ) ) ;
#629 = AXIS2_PLACEMENT_3D ( 'NONE', #101, #690, #351 ) ;
#630 = CARTESIAN_POINT ( 'NONE',  ( 7.157312674624878746, -11.77149860299000217, 1.000000000000000000 ) ) ;
#631 = EDGE_CURVE ( 'NONE', #139, #184, #334, .T. ) ;
#632 = ORIENTED_EDGE ( 'NONE', *, *, #636, .F. ) ;
#633 = DIRECTION ( 'NONE',  ( -1.000000000000000000, 0.000000000000000000, 0.000000000000000000 ) ) ;
#634 = EDGE_CURVE ( 'NONE', #375, #25, #732, .T. ) ;
#635 = DIRECTION ( 'NONE',  ( -0.000000000000000000, 0.000000000000000000, 1.000000000000000000 ) ) ;
#636 = EDGE_CURVE ( 'NONE', #432, #410, #580, .T. ) ;
#637 = LINE ( 'NONE', #570, #200 ) ;
#638 = ORIENTED_EDGE ( 'NONE', *, *, #535, .T. ) ;
#639 = VECTOR ( 'NONE', #719, 1000.000000000000000 ) ;
#640 = AXIS2_PLACEMENT_3D ( 'NONE', #822, #221, #633 ) ;
#641 = LINE ( 'NONE', #773, #746 ) ;
#642 = CARTESIAN_POINT ( 'NONE',  ( -37.27553213106448737, -116.9830861061695089, 1.000000000000000000 ) ) ;
#643 = ORIENTED_EDGE ( 'NONE', *, *, #225, .T. ) ;
#644 = SHAPE_DEFINITION_REPRESENTATION ( #621, #771 ) ;
#645 = ORIENTED_EDGE ( 'NONE', *, *, #356, .T. ) ;
#646 = CARTESIAN_POINT ( 'NONE',  ( -56.27553213106448737, -116.9830861061694804, 0.000000000000000000 ) ) ;
#647 = VECTOR ( 'NONE', #615, 1000.000000000000000 ) ;
#648 = DIRECTION ( 'NONE',  ( -0.000000000000000000, -0.000000000000000000, -1.000000000000000000 ) ) ;
#649 = VECTOR ( 'NONE', #137, 1000.000000000000000 ) ;
#650 = ADVANCED_FACE ( 'NONE', ( #399 ), #391, .F. ) ;
#651 = ORIENTED_EDGE ( 'NONE', *, *, #329, .T. ) ;
#652 = ORIENTED_EDGE ( 'NONE', *, *, #424, .F. ) ;
#653 = DIRECTION ( 'NONE',  ( -0.000000000000000000, 0.000000000000000000, 1.000000000000000000 ) ) ;
#654 = ORIENTED_EDGE ( 'NONE', *, *, #234, .F. ) ;
#655 = ORIENTED_EDGE ( 'NONE', *, *, #607, .T. ) ;
#656 = FACE_OUTER_BOUND ( 'NONE', #59, .T. ) ;
#657 = AXIS2_PLACEMENT_3D ( 'NONE', #72, #831, #188 ) ;
#658 = CARTESIAN_POINT ( 'NONE',  ( -24.27553213106443408, -61.98308610616950887, 1.000000000000000000 ) ) ;
#659 = DIRECTION ( 'NONE',  ( -0.000000000000000000, 0.000000000000000000, 1.000000000000000000 ) ) ;
#660 = ADVANCED_FACE ( 'NONE', ( #526 ), #601, .F. ) ;
#661 = EDGE_LOOP ( 'NONE', ( #783, #608, #149, #500, #600, #37, #731, #479, #803, #525, #241, #121 ) ) ;
#662 = CARTESIAN_POINT ( 'NONE',  ( -0.1872999745999500143, -16.01503175006000035, 1.000000000000000000 ) ) ;
#663 = CARTESIAN_POINT ( 'NONE',  ( -37.27553213106452290, -121.9830861061695089, 0.000000000000000000 ) ) ;
#664 = VERTEX_POINT ( 'NONE', #797 ) ;
#665 = DIRECTION ( 'NONE',  ( -0.000000000000000000, 0.000000000000000000, 1.000000000000000000 ) ) ;
#666 = CARTESIAN_POINT ( 'NONE',  ( 7.157312674623999449, -16.01503175006000035, 0.000000000000000000 ) ) ;
#667 = CARTESIAN_POINT ( 'NONE',  ( 7.157312674624999538, -6.247236474473000456, 1.000000000000000000 ) ) ;
#668 = ORIENTED_EDGE ( 'NONE', *, *, #171, .F. ) ;
#669 = CARTESIAN_POINT ( 'NONE',  ( 13.16162687325399894, -4.300008890018000685, 1.000000000000000000 ) ) ;
#670 = EDGE_CURVE ( 'NONE', #721, #39, #798, .T. ) ;
#671 = CARTESIAN_POINT ( 'NONE',  ( 8.674318008636069166, -8.905601789182829901E-14, 0.000000000000000000 ) ) ;
#672 = AXIS2_PLACEMENT_3D ( 'NONE', #111, #119, #389 ) ;
#673 = ADVANCED_FACE ( 'NONE', ( #267 ), #604, .T. ) ;
#674 = EDGE_LOOP ( 'NONE', ( #592, #586, #842, #32 ) ) ;
#675 = AXIS2_PLACEMENT_3D ( 'NONE', #760, #815, #164 ) ;
#676 = DIRECTION ( 'NONE',  ( -0.000000000000000000, 0.000000000000000000, 1.000000000000000000 ) ) ;
#677 = DIRECTION ( 'NONE',  ( -1.000000000000000000, 0.000000000000000000, 0.000000000000000000 ) ) ;
#678 = UNCERTAINTY_MEASURE_WITH_UNIT (LENGTH_MEASURE( 1.000000000000000082E-05 ), #827, 'distance_accuracy_value', 'NONE');
#679 = ORIENTED_EDGE ( 'NONE', *, *, #197, .T. ) ;
#680 = CARTESIAN_POINT ( 'NONE',  ( 0.000000000000000000, -6.247236474473000456, 1.000000000000000000 ) ) ;
#681 = CARTESIAN_POINT ( 'NONE',  ( 7.157312674627316795, -1.482482036494723852E-12, 1.000000000000000000 ) ) ;
#682 = AXIS2_PLACEMENT_3D ( 'NONE', #201, #619, #860 ) ;
#683 = CIRCLE ( 'NONE', #70, 7.999999999999996447 ) ;
#684 = ORIENTED_EDGE ( 'NONE', *, *, #697, .F. ) ;
#685 = DIRECTION ( 'NONE',  ( 1.000000000000000000, 0.000000000000000000, 0.000000000000000000 ) ) ;
#686 = DIRECTION ( 'NONE',  ( -0.000000000000000000, -0.000000000000000000, -1.000000000000000000 ) ) ;
#687 = ORIENTED_EDGE ( 'NONE', *, *, #846, .T. ) ;
#688 = DIRECTION ( 'NONE',  ( -6.489624748574557211E-18, -1.000000000000000000, 0.000000000000000000 ) ) ;
#689 = FACE_OUTER_BOUND ( 'NONE', #705, .T. ) ;
#690 = DIRECTION ( 'NONE',  ( -0.000000000000000000, 0.000000000000000000, 1.000000000000000000 ) ) ;
#691 = AXIS2_PLACEMENT_3D ( 'NONE', #530, #609, #533 ) ;
#692 = ORIENTED_EDGE ( 'NONE', *, *, #482, .F. ) ;
#693 = DIRECTION ( 'NONE',  ( 2.071283041399217601E-13, 1.000000000000000000, 0.000000000000000000 ) ) ;
#694 = CARTESIAN_POINT ( 'NONE',  ( 8.674318008635999888, -19.67886334772000367, 1.000000000000000000 ) ) ;
#695 = EDGE_LOOP ( 'NONE', ( #235, #836, #414, #651 ) ) ;
#696 = DIRECTION ( 'NONE',  ( -0.000000000000000000, -0.000000000000000000, -1.000000000000000000 ) ) ;
#697 = EDGE_CURVE ( 'NONE', #587, #849, #467, .T. ) ;
#698 = CARTESIAN_POINT ( 'NONE',  ( 8.674318008636026534, -4.300008890017999796, 1.000000000000000000 ) ) ;
#699 = DIRECTION ( 'NONE',  ( 0.000000000000000000, 1.000000000000000000, 0.000000000000000000 ) ) ;
#700 = ORIENTED_EDGE ( 'NONE', *, *, #421, .T. ) ;
#701 = EDGE_CURVE ( 'NONE', #341, #579, #64, .T. ) ;
#702 = DIRECTION ( 'NONE',  ( -1.000000000000000000, 0.000000000000000000, 0.000000000000000000 ) ) ;
#703 = VECTOR ( 'NONE', #508, 1000.000000000000000 ) ;
#704 = DIRECTION ( 'NONE',  ( 0.000000000000000000, -0.000000000000000000, 1.000000000000000000 ) ) ;
#705 = EDGE_LOOP ( 'NONE', ( #369, #654, #178, #556 ) ) ;
#706 = VECTOR ( 'NONE', #606, 1000.000000000000000 ) ;
#707 = PLANE ( 'NONE',  #629 ) ;
#708 = ORIENTED_EDGE ( 'NONE', *, *, #474, .F. ) ;
#709 = VECTOR ( 'NONE', #765, 1000.000000000000000 ) ;
#710 = CARTESIAN_POINT ( 'NONE',  ( -0.1872999745999499310, -3.485006350012999743, 1.000000000000000000 ) ) ;
#711 = EDGE_CURVE ( 'NONE', #463, #734, #100, .T. ) ;
#712 = DIRECTION ( 'NONE',  ( 1.000000000000000000, 0.000000000000000000, 0.000000000000000000 ) ) ;
#713 = VERTEX_POINT ( 'NONE', #203 ) ;
#714 = ORIENTED_EDGE ( 'NONE', *, *, #725, .F. ) ;
#715 = VECTOR ( 'NONE', #47, 1000.000000000000000 ) ;
#716 = DIRECTION ( 'NONE',  ( -0.000000000000000000, 0.000000000000000000, 1.000000000000000000 ) ) ;
#717 = AXIS2_PLACEMENT_3D ( 'NONE', #19, #699, #704 ) ;
#718 = VERTEX_POINT ( 'NONE', #662 ) ;
#719 = DIRECTION ( 'NONE',  ( 0.000000000000000000, 1.000000000000000000, -0.000000000000000000 ) ) ;
#720 = CARTESIAN_POINT ( 'NONE',  ( 13.16162687325399894, -4.300008890018000685, 0.000000000000000000 ) ) ;
#721 = VERTEX_POINT ( 'NONE', #49 ) ;
#722 = ORIENTED_EDGE ( 'NONE', *, *, #572, .T. ) ;
#723 = EDGE_CURVE ( 'NONE', #603, #393, #322, .T. ) ;
#724 = DIRECTION ( 'NONE',  ( 1.000000000000000000, 0.000000000000000000, 0.000000000000000000 ) ) ;
#725 = EDGE_CURVE ( 'NONE', #537, #728, #497, .T. ) ;
#726 = FACE_OUTER_BOUND ( 'NONE', #36, .T. ) ;
#727 = EDGE_CURVE ( 'NONE', #410, #393, #92, .T. ) ;
#728 = VERTEX_POINT ( 'NONE', #420 ) ;
#729 = DIRECTION ( 'NONE',  ( -1.000000000000000000, 0.000000000000000000, 0.000000000000000000 ) ) ;
#730 = CARTESIAN_POINT ( 'NONE',  ( -24.27553213106443408, -61.98308610616950887, 0.000000000000000000 ) ) ;
#731 = ORIENTED_EDGE ( 'NONE', *, *, #385, .F. ) ;
#732 = LINE ( 'NONE', #743, #649 ) ;
#733 = CARTESIAN_POINT ( 'NONE',  ( -56.27553213106450869, 30.01691389383043429, 0.000000000000000000 ) ) ;
#734 = VERTEX_POINT ( 'NONE', #278 ) ;
#735 = DIRECTION ( 'NONE',  ( -0.000000000000000000, -0.000000000000000000, -1.000000000000000000 ) ) ;
#736 = CARTESIAN_POINT ( 'NONE',  ( 65.72446786893550552, 30.01691389383048758, 1.000000000000000000 ) ) ;
#737 = EDGE_CURVE ( 'NONE', #366, #567, #157, .T. ) ;
#738 = ORIENTED_EDGE ( 'NONE', *, *, #332, .T. ) ;
#739 = DIRECTION ( 'NONE',  ( 1.000000000000000000, 0.000000000000000000, 0.000000000000000000 ) ) ;
#740 = CARTESIAN_POINT ( 'NONE',  ( -32.27553213106448737, 0.000000000000000000, 1.000000000000000000 ) ) ;
#741 = AXIS2_PLACEMENT_3D ( 'NONE', #794, #802, #527 ) ;
#742 = ORIENTED_EDGE ( 'NONE', *, *, #396, .F. ) ;
#743 = CARTESIAN_POINT ( 'NONE',  ( 8.674318008636005217, -6.247236474473000456, 1.000000000000000000 ) ) ;
#744 = CARTESIAN_POINT ( 'NONE',  ( -24.27553213106448737, -69.98308610616950887, 1.000000000000000000 ) ) ;
#745 = ORIENTED_EDGE ( 'NONE', *, *, #412, .T. ) ;
#746 = VECTOR ( 'NONE', #837, 1000.000000000000000 ) ;
#747 = CARTESIAN_POINT ( 'NONE',  ( 3.485006350013000187, -16.01503175006000035, 0.000000000000000000 ) ) ;
#748 = CARTESIAN_POINT ( 'NONE',  ( 0.000000000000000000, -121.9830861061695089, 0.000000000000000000 ) ) ;
#749 = EDGE_LOOP ( 'NONE', ( #496, #595, #821, #447 ) ) ;
#750 = CARTESIAN_POINT ( 'NONE',  ( 65.72446786893551973, -53.98308610616951597, 1.000000000000000000 ) ) ;
#751 = MANIFOLD_SOLID_BREP ( '\X2\51f853f0\X0\-\X2\62c94f38\X0\1', #561 ) ;
#752 = AXIS2_PLACEMENT_3D ( 'NONE', #459, #809, #69 ) ;
#753 = ORIENTED_EDGE ( 'NONE', *, *, #761, .F. ) ;
#754 = LINE ( 'NONE', #350, #181 ) ;
#755 = DIRECTION ( 'NONE',  ( 0.000000000000000000, -0.000000000000000000, 1.000000000000000000 ) ) ;
#756 = ORIENTED_EDGE ( 'NONE', *, *, #98, .F. ) ;
#757 = DIRECTION ( 'NONE',  ( 0.000000000000000000, -0.000000000000000000, -1.000000000000000000 ) ) ;
#758 = EDGE_CURVE ( 'NONE', #728, #583, #273, .T. ) ;
#759 = DIRECTION ( 'NONE',  ( 1.652117596168389728E-16, -1.000000000000000000, 0.000000000000000000 ) ) ;
#760 = CARTESIAN_POINT ( 'NONE',  ( -51.27553213106449448, -116.9830861061695089, 1.000000000000000000 ) ) ;
#761 = EDGE_CURVE ( 'NONE', #63, #393, #754, .T. ) ;
#762 = EDGE_CURVE ( 'NONE', #577, #25, #814, .T. ) ;
#763 = MECHANICAL_DESIGN_GEOMETRIC_PRESENTATION_REPRESENTATION (  '', ( #309 ), #825 ) ;
#764 = ORIENTED_EDGE ( 'NONE', *, *, #112, .T. ) ;
#765 = DIRECTION ( 'NONE',  ( 1.000000000000000000, -7.709882115452485562E-17, 0.000000000000000000 ) ) ;
#766 = FACE_OUTER_BOUND ( 'NONE', #34, .T. ) ;
#767 = ORIENTED_EDGE ( 'NONE', *, *, #318, .F. ) ;
#768 = CARTESIAN_POINT ( 'NONE',  ( 0.000000000000000000, 0.000000000000000000, 0.000000000000000000 ) ) ;
#769 = DIRECTION ( 'NONE',  ( 0.000000000000000000, 0.000000000000000000, 1.000000000000000000 ) ) ;
#770 = ORIENTED_EDGE ( 'NONE', *, *, #552, .T. ) ;
#771 = ADVANCED_BREP_SHAPE_REPRESENTATION ( 'Steel mesh soldering helper', ( #751, #439 ), #294 ) ;
#772 = PLANE ( 'NONE',  #223 ) ;
#773 = CARTESIAN_POINT ( 'NONE',  ( 8.674318008635999888, -11.77149860299000217, 1.000000000000000000 ) ) ;
#774 = DIRECTION ( 'NONE',  ( 1.000000000000000000, -7.709882115452485562E-17, 0.000000000000000000 ) ) ;
#775 = VERTEX_POINT ( 'NONE', #628 ) ;
#776 = LINE ( 'NONE', #505, #266 ) ;
#777 = LINE ( 'NONE', #680, #568 ) ;
#778 = CARTESIAN_POINT ( 'NONE',  ( 17.64893573787099967, -4.300008890018001573, 1.000000000000000000 ) ) ;
#779 = FACE_OUTER_BOUND ( 'NONE', #866, .T. ) ;
#780 = LINE ( 'NONE', #790, #213 ) ;
#781 = AXIS2_PLACEMENT_3D ( 'NONE', #626, #228, #755 ) ;
#782 = EDGE_LOOP ( 'NONE', ( #272, #71, #643, #327 ) ) ;
#783 = ORIENTED_EDGE ( 'NONE', *, *, #584, .F. ) ;
#784 = EDGE_CURVE ( 'NONE', #713, #432, #211, .T. ) ;
#785 = DIRECTION ( 'NONE',  ( -0.000000000000000000, 0.000000000000000000, 1.000000000000000000 ) ) ;
#786 = VECTOR ( 'NONE', #481, 1000.000000000000000 ) ;
#787 = ADVANCED_FACE ( 'NONE', ( #76 ), #150, .F. ) ;
#788 = VECTOR ( 'NONE', #614, 1000.000000000000000 ) ;
#789 = EDGE_CURVE ( 'NONE', #579, #165, #683, .T. ) ;
#790 = CARTESIAN_POINT ( 'NONE',  ( -51.27553213106445185, -121.9830861061695089, 1.000000000000000000 ) ) ;
#791 = LINE ( 'NONE', #667, #612 ) ;
#792 = ORIENTED_EDGE ( 'NONE', *, *, #424, .T. ) ;
#793 = LINE ( 'NONE', #858, #148 ) ;
#794 = CARTESIAN_POINT ( 'NONE',  ( -48.27553213106450869, 30.01691389383048758, 0.000000000000000000 ) ) ;
#795 = ORIENTED_EDGE ( 'NONE', *, *, #314, .T. ) ;
#796 = ADVANCED_FACE ( 'NONE', ( #17 ), #153, .T. ) ;
#797 = CARTESIAN_POINT ( 'NONE',  ( 7.157312674624999538, -3.485006350013000187, 0.000000000000000000 ) ) ;
#798 = CIRCLE ( 'NONE', #514, 7.999999999999992895 ) ;
#799 = LINE ( 'NONE', #740, #61 ) ;
#800 = ORIENTED_EDGE ( 'NONE', *, *, #162, .T. ) ;
#801 = CARTESIAN_POINT ( 'NONE',  ( 7.157312674624999538, 0.000000000000000000, 1.000000000000000000 ) ) ;
#802 = DIRECTION ( 'NONE',  ( -0.000000000000000000, 0.000000000000000000, 1.000000000000000000 ) ) ;
#803 = ORIENTED_EDGE ( 'NONE', *, *, #356, .F. ) ;
#804 = DIRECTION ( 'NONE',  ( -0.000000000000000000, 0.000000000000000000, 1.000000000000000000 ) ) ;
#805 = EDGE_LOOP ( 'NONE', ( #265, #117, #441, #160 ) ) ;
#806 = VECTOR ( 'NONE', #403, 1000.000000000000000 ) ;
#807 = DIRECTION ( 'NONE',  ( 1.000000000000000000, 0.000000000000000000, 0.000000000000000000 ) ) ;
#808 = ADVANCED_FACE ( 'NONE', ( #22 ), #285, .T. ) ;
#809 = DIRECTION ( 'NONE',  ( -0.000000000000000000, -0.000000000000000000, -1.000000000000000000 ) ) ;
#810 = ORIENTED_EDGE ( 'NONE', *, *, #636, .T. ) ;
#811 = DIRECTION ( 'NONE',  ( 3.304235192336779456E-16, -1.000000000000000000, 0.000000000000000000 ) ) ;
#812 = VECTOR ( 'NONE', #23, 1000.000000000000000 ) ;
#813 = EDGE_LOOP ( 'NONE', ( #839, #306, #792, #764 ) ) ;
#814 = LINE ( 'NONE', #480, #494 ) ;
#815 = DIRECTION ( 'NONE',  ( -0.000000000000000000, 0.000000000000000000, 1.000000000000000000 ) ) ;
#816 = ADVANCED_FACE ( 'NONE', ( #26 ), #291, .T. ) ;
#817 = VECTOR ( 'NONE', #581, 1000.000000000000000 ) ;
#818 = EDGE_LOOP ( 'NONE', ( #15, #215, #108, #450 ) ) ;
#819 = ADVANCED_FACE ( 'NONE', ( #166 ), #169, .T. ) ;
#820 = LINE ( 'NONE', #218, #616 ) ;
#821 = ORIENTED_EDGE ( 'NONE', *, *, #145, .F. ) ;
#822 = CARTESIAN_POINT ( 'NONE',  ( -37.27553213106448737, -116.9830861061695089, 1.000000000000000000 ) ) ;
#823 = PLANE ( 'NONE',  #717 ) ;
#824 = CIRCLE ( 'NONE', #854, 3.672306324611238182 ) ;
#825 =( GEOMETRIC_REPRESENTATION_CONTEXT ( 3 ) GLOBAL_UNCERTAINTY_ASSIGNED_CONTEXT ( ( #678 ) ) GLOBAL_UNIT_ASSIGNED_CONTEXT ( ( #827, #553, #216 ) ) REPRESENTATION_CONTEXT ( 'NONE', 'WORKASPACE' ) );
#826 = ORIENTED_EDGE ( 'NONE', *, *, #451, .F. ) ;
#827 =( LENGTH_UNIT ( ) NAMED_UNIT ( * ) SI_UNIT ( .MILLI., .METRE. ) );
#828 = CARTESIAN_POINT ( 'NONE',  ( 8.674318008636069166, -8.905601789182829901E-14, 1.000000000000000000 ) ) ;
#829 = ORIENTED_EDGE ( 'NONE', *, *, #421, .F. ) ;
#830 = VECTOR ( 'NONE', #45, 1000.000000000000000 ) ;
#831 = DIRECTION ( 'NONE',  ( 1.000000000000000000, -6.489624748574557211E-18, 0.000000000000000000 ) ) ;
#832 = DIRECTION ( 'NONE',  ( -1.652117596168389728E-16, 1.000000000000000000, 0.000000000000000000 ) ) ;
#833 = PLANE ( 'NONE',  #781 ) ;
#834 = ORIENTED_EDGE ( 'NONE', *, *, #448, .T. ) ;
#835 = DIRECTION ( 'NONE',  ( -0.000000000000000000, -0.000000000000000000, -1.000000000000000000 ) ) ;
#836 = ORIENTED_EDGE ( 'NONE', *, *, #846, .F. ) ;
#837 = DIRECTION ( 'NONE',  ( -0.000000000000000000, -0.000000000000000000, -1.000000000000000000 ) ) ;
#838 = CARTESIAN_POINT ( 'NONE',  ( 73.72446786893550552, 2.436029812688388404E-14, 1.000000000000000000 ) ) ;
#839 = ORIENTED_EDGE ( 'NONE', *, *, #158, .F. ) ;
#840 = ORIENTED_EDGE ( 'NONE', *, *, #161, .F. ) ;
#841 = LINE ( 'NONE', #658, #33 ) ;
#842 = ORIENTED_EDGE ( 'NONE', *, *, #605, .T. ) ;
#843 = EDGE_CURVE ( 'NONE', #136, #375, #776, .T. ) ;
#844 = PLANE ( 'NONE',  #435 ) ;
#845 = CIRCLE ( 'NONE', #346, 8.000000000000007105 ) ;
#846 = EDGE_CURVE ( 'NONE', #42, #39, #501, .T. ) ;
#847 = DIRECTION ( 'NONE',  ( -0.000000000000000000, -0.000000000000000000, -1.000000000000000000 ) ) ;
#848 = EDGE_CURVE ( 'NONE', #363, #577, #791, .T. ) ;
#849 = VERTEX_POINT ( 'NONE', #456 ) ;
#850 = CARTESIAN_POINT ( 'NONE',  ( -37.27553213106452290, -121.9830861061695089, 1.000000000000000000 ) ) ;
#851 = VECTOR ( 'NONE', #336, 1000.000000000000000 ) ;
#852 = DIRECTION ( 'NONE',  ( 0.000000000000000000, 0.000000000000000000, 1.000000000000000000 ) ) ;
#853 = ORIENTED_EDGE ( 'NONE', *, *, #631, .T. ) ;
#854 = AXIS2_PLACEMENT_3D ( 'NONE', #129, #804, #462 ) ;
#855 = DIRECTION ( 'NONE',  ( -0.000000000000000000, -0.000000000000000000, -1.000000000000000000 ) ) ;
#856 = ADVANCED_FACE ( 'NONE', ( #726 ), #772, .T. ) ;
#857 = ORIENTED_EDGE ( 'NONE', *, *, #737, .F. ) ;
#858 = CARTESIAN_POINT ( 'NONE',  ( -32.27553213106448737, -116.9830861061694804, 1.000000000000000000 ) ) ;
#859 = VECTOR ( 'NONE', #847, 1000.000000000000000 ) ;
#860 = DIRECTION ( 'NONE',  ( 9.745856476932424289E-14, -1.000000000000000000, 0.000000000000000000 ) ) ;
#861 = AXIS2_PLACEMENT_3D ( 'NONE', #543, #665, #124 ) ;
#862 = PRODUCT_CONTEXT ( 'NONE', #281, 'mechanical' ) ;
#863 = ORIENTED_EDGE ( 'NONE', *, *, #711, .F. ) ;
#864 = DIRECTION ( 'NONE',  ( -1.000000000000000000, 0.000000000000000000, 0.000000000000000000 ) ) ;
#865 = LINE ( 'NONE', #698, #478 ) ;
#866 = EDGE_LOOP ( 'NONE', ( #742, #829, #245, #230 ) ) ;
#867 = DIRECTION ( 'NONE',  ( 0.000000000000000000, -0.000000000000000000, -1.000000000000000000 ) ) ;
#868 = CARTESIAN_POINT ( 'NONE',  ( -32.27553213106448737, -69.98308610616957992, 1.000000000000000000 ) ) ;
#869 = VECTOR ( 'NONE', #688, 1000.000000000000000 ) ;
#870 = ORIENTED_EDGE ( 'NONE', *, *, #236, .F. ) ;
#871 = ADVANCED_FACE ( 'NONE', ( #120 ), #524, .T. ) ;
ENDSEC;
END-ISO-10303-21;
